<?xml version="1.0" encoding="UTF-8" standalone="yes"?><svg xmlns="http://www.w3.org/2000/svg" xmlns:xlink="http://www.w3.org/1999/xlink" height="356px" style="width:2042px;height:356px;" version="1.1" viewBox="0 0 2042 356" width="2042px"><defs><filter height="300%" id="f1" width="300%" x="-1" y="-1"><feGaussianBlur result="blurOut" stdDeviation="2.0"/><feColorMatrix in="blurOut" result="blurOut2" type="matrix" values="0 0 0 0 0 0 0 0 0 0 0 0 0 0 0 0 0 0 .4 0"/><feOffset dx="4.0" dy="4.0" in="blurOut2" result="blurOut3"/><feBlend in="SourceGraphic" in2="blurOut3" mode="normal"/></filter></defs><g><text fill="#000000" font-family="sans-serif" font-size="30" font-weight="bold" lengthAdjust="spacingAndGlyphs" textLength="262" x="894.5" y="31.1426">Sága Components</text><rect fill="#FEFECE" filter="url(#f1)" height="39.6719" style="stroke: #A80036; stroke-width: 1.5;" width="150" x="994" y="45.7344"/><text fill="#000000" font-family="sans-serif" font-size="12" lengthAdjust="spacingAndGlyphs" textLength="29" x="1054.5" y="60.1914">Sága</text><line style="stroke: #A80036; stroke-width: 1.5;" x1="995" x2="1143" y1="64.8281" y2="64.8281"/><text fill="#000000" font-family="sans-serif" font-size="10" lengthAdjust="spacingAndGlyphs" textLength="138" x="1000" y="79.209">SamplingFrequency : double</text><rect fill="#FEFECE" filter="url(#f1)" height="52.25" style="stroke: #A80036; stroke-width: 1.5;" width="104" x="6" y="145.7344"/><text fill="#000000" font-family="sans-serif" font-size="12" lengthAdjust="spacingAndGlyphs" textLength="81" x="13" y="160.1914">SágaTxModule</text><line style="stroke: #A80036; stroke-width: 1.5;" x1="7" x2="109" y1="164.8281" y2="164.8281"/><text fill="#000000" font-family="sans-serif" font-size="10" lengthAdjust="spacingAndGlyphs" textLength="79" x="12" y="179.209">nTxModules : int</text><text fill="#000000" font-family="sans-serif" font-size="10" lengthAdjust="spacingAndGlyphs" textLength="83" x="12" y="191.7871">simTime : double</text><rect fill="#FEFECE" filter="url(#f1)" height="52.25" style="stroke: #A80036; stroke-width: 1.5;" width="186" x="145" y="145.7344"/><text fill="#000000" font-family="sans-serif" font-size="12" lengthAdjust="spacingAndGlyphs" textLength="136" x="161" y="160.1914">SágaPropagationModule</text><line style="stroke: #A80036; stroke-width: 1.5;" x1="146" x2="330" y1="164.8281" y2="164.8281"/><text fill="#000000" font-family="sans-serif" font-size="10" lengthAdjust="spacingAndGlyphs" textLength="57" x="151" y="179.209">nPulses : int</text><text fill="#000000" font-family="sans-serif" font-size="10" lengthAdjust="spacingAndGlyphs" textLength="136" x="151" y="191.7871">c_targetFunctions : handle {}</text><rect fill="#FEFECE" filter="url(#f1)" height="39.6719" style="stroke: #A80036; stroke-width: 1.5;" width="203" x="366.5" y="151.7344"/><text fill="#000000" font-family="sans-serif" font-size="12" lengthAdjust="spacingAndGlyphs" textLength="150" x="388.5" y="166.1914">PeriodicInterferenceModule</text><line style="stroke: #A80036; stroke-width: 1.5;" x1="367.5" x2="568.5" y1="170.8281" y2="170.8281"/><text fill="#000000" font-family="sans-serif" font-size="10" lengthAdjust="spacingAndGlyphs" textLength="166" x="372.5" y="185.209">c_interferenceFunctions : handle {}</text><rect fill="#FEFECE" filter="url(#f1)" height="89.9844" style="stroke: #A80036; stroke-width: 1.5;" width="179" x="378.5" y="257.7344"/><text fill="#000000" font-family="sans-serif" font-size="12" lengthAdjust="spacingAndGlyphs" textLength="105" x="409.5" y="272.1914">InterferenceModels</text><line style="stroke: #A80036; stroke-width: 1.5;" x1="379.5" x2="556.5" y1="276.8281" y2="276.8281"/><text fill="#000000" font-family="sans-serif" font-size="10" lengthAdjust="spacingAndGlyphs" textLength="63" x="384.5" y="291.209">time : double</text><text fill="#000000" font-family="sans-serif" font-size="10" lengthAdjust="spacingAndGlyphs" textLength="46" x="384.5" y="303.7871">pulse : int</text><text fill="#000000" font-family="sans-serif" font-size="10" lengthAdjust="spacingAndGlyphs" textLength="88" x="384.5" y="316.3652">sampFreq : double</text><text fill="#000000" font-family="sans-serif" font-size="10" lengthAdjust="spacingAndGlyphs" textLength="133" x="384.5" y="328.9434">return PRF, spherPos[], vel[],</text><text fill="#000000" font-family="sans-serif" font-size="10" lengthAdjust="spacingAndGlyphs" textLength="30" x="384.5" y="341.5215">wave[]</text><rect fill="#FEFECE" filter="url(#f1)" height="35.0938" style="stroke: #A80036; stroke-width: 1.5;" width="95" x="604.5" y="154.2344"/><text fill="#000000" font-family="sans-serif" font-size="12" lengthAdjust="spacingAndGlyphs" textLength="78" x="611.5" y="168.6914">ExtractEchoes</text><line style="stroke: #A80036; stroke-width: 1.5;" x1="605.5" x2="698.5" y1="173.3281" y2="173.3281"/><rect fill="#FEFECE" filter="url(#f1)" height="39.6719" style="stroke: #A80036; stroke-width: 1.5;" width="250" x="735" y="151.7344"/><text fill="#000000" font-family="sans-serif" font-size="12" lengthAdjust="spacingAndGlyphs" textLength="197" x="754" y="166.1914">SágaPropagationAndDisturbModule</text><line style="stroke: #A80036; stroke-width: 1.5;" x1="736" x2="984" y1="170.8281" y2="170.8281"/><text fill="#000000" font-family="sans-serif" font-size="10" lengthAdjust="spacingAndGlyphs" textLength="109" x="741" y="185.209">h_disturbance : handle</text><rect fill="#FEFECE" filter="url(#f1)" height="39.6719" style="stroke: #A80036; stroke-width: 1.5;" width="97" x="1020.5" y="151.7344"/><text fill="#000000" font-family="sans-serif" font-size="12" lengthAdjust="spacingAndGlyphs" textLength="83" x="1027.5" y="166.1914">SágaRxModule</text><line style="stroke: #A80036; stroke-width: 1.5;" x1="1021.5" x2="1116.5" y1="170.8281" y2="170.8281"/><text fill="#000000" font-family="sans-serif" font-size="10" lengthAdjust="spacingAndGlyphs" textLength="83" x="1026.5" y="185.209">simTime : double</text><rect fill="#FEFECE" filter="url(#f1)" height="35.0938" style="stroke: #A80036; stroke-width: 1.5;" width="152" x="1153" y="154.2344"/><text fill="#000000" font-family="sans-serif" font-size="12" lengthAdjust="spacingAndGlyphs" textLength="120" x="1169" y="168.6914">ConcatenateRxOutput</text><line style="stroke: #A80036; stroke-width: 1.5;" x1="1154" x2="1304" y1="173.3281" y2="173.3281"/><rect fill="#FEFECE" filter="url(#f1)" height="35.0938" style="stroke: #A80036; stroke-width: 1.5;" width="154" x="1340" y="154.2344"/><text fill="#000000" font-family="sans-serif" font-size="12" lengthAdjust="spacingAndGlyphs" textLength="122" x="1356" y="168.6914">SágaSamplingModule</text><line style="stroke: #A80036; stroke-width: 1.5;" x1="1341" x2="1493" y1="173.3281" y2="173.3281"/><rect fill="#FEFECE" filter="url(#f1)" height="35.0938" style="stroke: #A80036; stroke-width: 1.5;" width="128" x="1529" y="154.2344"/><text fill="#000000" font-family="sans-serif" font-size="12" lengthAdjust="spacingAndGlyphs" textLength="96" x="1545" y="168.6914">SignalCorrelation</text><line style="stroke: #A80036; stroke-width: 1.5;" x1="1530" x2="1656" y1="173.3281" y2="173.3281"/><rect fill="#FEFECE" filter="url(#f1)" height="39.6719" style="stroke: #A80036; stroke-width: 1.5;" width="186" x="1692" y="151.7344"/><text fill="#000000" font-family="sans-serif" font-size="12" lengthAdjust="spacingAndGlyphs" textLength="95" x="1736" y="166.1914">BeamShapeSum</text><line style="stroke: #A80036; stroke-width: 1.5;" x1="1693" x2="1877" y1="170.8281" y2="170.8281"/><text fill="#000000" font-family="sans-serif" font-size="10" lengthAdjust="spacingAndGlyphs" textLength="174" x="1698" y="185.209">beamDirectionCoordSpher : double[]</text><rect fill="#FEFECE" filter="url(#f1)" height="35.0938" style="stroke: #A80036; stroke-width: 1.5;" width="120" x="1913" y="154.2344"/><text fill="#000000" font-family="sans-serif" font-size="12" lengthAdjust="spacingAndGlyphs" textLength="88" x="1929" y="168.6914">DopplerFiltering</text><line style="stroke: #A80036; stroke-width: 1.5;" x1="1914" x2="2032" y1="173.3281" y2="173.3281"/><rect fill="#FEFECE" filter="url(#f1)" height="52.25" style="stroke: #A80036; stroke-width: 1.5;" width="172" x="152" y="276.7344"/><text fill="#000000" font-family="sans-serif" font-size="12" lengthAdjust="spacingAndGlyphs" textLength="83" x="192" y="291.1914">TargetModel(s)</text><line style="stroke: #A80036; stroke-width: 1.5;" x1="153" x2="323" y1="295.8281" y2="295.8281"/><text fill="#000000" font-family="sans-serif" font-size="10" lengthAdjust="spacingAndGlyphs" textLength="63" x="158" y="310.209">time : double</text><text fill="#000000" font-family="sans-serif" font-size="10" lengthAdjust="spacingAndGlyphs" textLength="125" x="158" y="322.7871">return pos[], vel[], swirling{}</text><rect fill="#FEFECE" filter="url(#f1)" height="52.25" style="stroke: #A80036; stroke-width: 1.5;" width="138" x="791" y="276.7344"/><text fill="#000000" font-family="sans-serif" font-size="12" lengthAdjust="spacingAndGlyphs" textLength="115" x="798" y="291.1914">DisturbanceModel(s)</text><line style="stroke: #A80036; stroke-width: 1.5;" x1="792" x2="928" y1="295.8281" y2="295.8281"/><text fill="#000000" font-family="sans-serif" font-size="10" lengthAdjust="spacingAndGlyphs" textLength="63" x="797" y="310.209">time : double</text><text fill="#000000" font-family="sans-serif" font-size="10" lengthAdjust="spacingAndGlyphs" textLength="88" x="797" y="322.7871">return wave[], pos[]</text><path d="M980.615,66.4294 C812.4,67.5394 435.469,78.1664 127,145.7344 C125.631,146.0344 124.252,146.3544 122.867,146.6934 " fill="none" style="stroke: #A80036; stroke-width: 1.0;"/><polygon fill="#A80036" points="110.319,150.1644,120.0596,151.6204,115.1381,148.8315,117.927,143.9099,110.319,150.1644" style="stroke: #A80036; stroke-width: 1.0;"/><line style="stroke: #A80036; stroke-width: 1.0;" x1="115.1381" x2="122.848" y1="148.8315" y2="146.6979"/><polygon fill="#A80036" points="993.817,66.3584,987.796,62.3901,981.8172,66.4217,987.8382,70.39,993.817,66.3584" style="stroke: #A80036; stroke-width: 1.0;"/><path d="M980.839,73.2004 C844.674,83.9074 575.269,107.9624 349,145.7344 C347.356,146.0084 345.7,146.2924 344.034,146.5844 " fill="none" style="stroke: #A80036; stroke-width: 1.0;"/><polygon fill="#A80036" points="331.118,148.9654,340.6941,151.2672,336.0351,148.0588,339.2435,143.3998,331.118,148.9654" style="stroke: #A80036; stroke-width: 1.0;"/><line style="stroke: #A80036; stroke-width: 1.0;" x1="336.0351" x2="343.902" y1="148.0588" y2="146.6079"/><polygon fill="#A80036" points="993.992,72.1744,987.699,68.6533,982.0284,73.1079,988.3214,76.629,993.992,72.1744" style="stroke: #A80036; stroke-width: 1.0;"/><path d="M1018.65,91.7874 C985.882,108.0944 943.294,129.2864 910.495,145.6074 " fill="none" style="stroke: #A80036; stroke-width: 1.0;"/><polygon fill="#A80036" points="898.444,151.6044,908.2835,151.176,902.9204,149.3769,904.7196,144.0138,898.444,151.6044" style="stroke: #A80036; stroke-width: 1.0;"/><line style="stroke: #A80036; stroke-width: 1.0;" x1="902.9204" x2="910.083" y1="149.3769" y2="145.8129"/><polygon fill="#A80036" points="1030.67,85.8094,1023.5167,84.8984,1019.9245,91.1511,1027.0778,92.0621,1030.67,85.8094" style="stroke: #A80036; stroke-width: 1.0;"/><path d="M980.737,79.9914 C883.924,94.8134 724.068,120.1174 587,145.7344 C581.241,146.8104 575.333,147.9474 569.375,149.1184 " fill="none" style="stroke: #A80036; stroke-width: 1.0;"/><polygon fill="#A80036" points="556.291,151.7284,565.8996,153.8906,561.1944,150.7503,564.3347,146.0452,556.291,151.7284" style="stroke: #A80036; stroke-width: 1.0;"/><line style="stroke: #A80036; stroke-width: 1.0;" x1="561.1944" x2="569.04" y1="150.7503" y2="149.1854"/><polygon fill="#A80036" points="993.679,78.0144,987.1438,74.9661,981.8166,79.8262,988.3517,82.8744,993.679,78.0144" style="stroke: #A80036; stroke-width: 1.0;"/><path d="M980.651,82.8344 C908.895,96.7984 805.457,118.9544 717,145.7344 C712.95,146.9604 708.792,148.3184 704.632,149.7504 " fill="none" style="stroke: #A80036; stroke-width: 1.0;"/><polygon fill="#A80036" points="692.25,154.2034,702.0726,154.9222,696.9551,152.5116,699.3657,147.3941,692.25,154.2034" style="stroke: #A80036; stroke-width: 1.0;"/><line style="stroke: #A80036; stroke-width: 1.0;" x1="696.9551" x2="704.4825" y1="152.5116" y2="149.8039"/><polygon fill="#A80036" points="993.67,80.3224,987.0208,77.5315,981.8873,82.5958,988.5365,85.3867,993.67,80.3224" style="stroke: #A80036; stroke-width: 1.0;"/><path d="M1069,98.9684 C1069,111.4544 1069,125.7284 1069,138.2394 " fill="none" style="stroke: #A80036; stroke-width: 1.0;"/><polygon fill="#A80036" points="1069,151.4284,1073,142.4284,1069,146.4284,1065,142.4284,1069,151.4284" style="stroke: #A80036; stroke-width: 1.0;"/><line style="stroke: #A80036; stroke-width: 1.0;" x1="1069" x2="1069" y1="146.4284" y2="138.4279"/><polygon fill="#A80036" points="1069,85.8094,1065,91.8094,1069,97.8094,1073,91.8094,1069,85.8094" style="stroke: #A80036; stroke-width: 1.0;"/><path d="M1109.56,93.0954 C1135.07,109.6814 1167.73,130.9094 1192.45,146.9744 " fill="none" style="stroke: #A80036; stroke-width: 1.0;"/><polygon fill="#A80036" points="1203.53,154.1794,1198.1648,145.9201,1199.3381,151.454,1193.8042,152.6272,1203.53,154.1794" style="stroke: #A80036; stroke-width: 1.0;"/><line style="stroke: #A80036; stroke-width: 1.0;" x1="1199.3381" x2="1192.63" y1="151.454" y2="147.0949"/><polygon fill="#A80036" points="1098.35,85.8094,1101.2004,92.4332,1108.411,92.3497,1105.5606,85.7259,1098.35,85.8094" style="stroke: #A80036; stroke-width: 1.0;"/><path d="M1145.51,89.6004 C1206.24,107.7494 1290.36,132.8884 1348.81,150.3554 " fill="none" style="stroke: #A80036; stroke-width: 1.0;"/><polygon fill="#A80036" points="1361.61,154.1794,1354.1286,147.7741,1356.8185,152.7504,1351.8422,155.4404,1361.61,154.1794" style="stroke: #A80036; stroke-width: 1.0;"/><line style="stroke: #A80036; stroke-width: 1.0;" x1="1356.8185" x2="1349.15" y1="152.7504" y2="150.4574"/><polygon fill="#A80036" points="1132.83,85.8094,1137.4309,91.362,1144.326,89.2507,1139.7251,83.698,1132.83,85.8094" style="stroke: #A80036; stroke-width: 1.0;"/><path d="M1157.7,75.6604 C1276.13,88.1794 1492.21,113.1224 1675,145.7344 C1680.68,146.7484 1686.52,147.8604 1692.39,149.0354 " fill="none" style="stroke: #A80036; stroke-width: 1.0;"/><polygon fill="#A80036" points="1705.27,151.6904,1697.2647,145.9532,1700.3733,150.6794,1695.6471,153.788,1705.27,151.6904" style="stroke: #A80036; stroke-width: 1.0;"/><line style="stroke: #A80036; stroke-width: 1.0;" x1="1700.3733" x2="1692.54" y1="150.6794" y2="149.0654"/><polygon fill="#A80036" points="1144.45,74.2694,1149.9996,78.8739,1156.3844,75.5222,1150.8348,70.9176,1144.45,74.2694" style="stroke: #A80036; stroke-width: 1.0;"/><path d="M1156.91,79.1504 C1246.77,92.6034 1390.07,116.1644 1512,145.7344 C1517.94,147.1764 1524.09,148.8084 1530.22,150.5314 " fill="none" style="stroke: #A80036; stroke-width: 1.0;"/><polygon fill="#A80036" points="1542.71,154.1654,1535.1842,147.8122,1537.9087,152.7697,1532.9512,155.4942,1542.71,154.1654" style="stroke: #A80036; stroke-width: 1.0;"/><line style="stroke: #A80036; stroke-width: 1.0;" x1="1537.9087" x2="1530.23" y1="152.7697" y2="150.5334"/><polygon fill="#A80036" points="1144.05,77.2394,1149.4009,82.0735,1155.9211,78.9935,1150.5703,74.1594,1144.05,77.2394" style="stroke: #A80036; stroke-width: 1.0;"/><path d="M1157.56,68.8584 C1309.94,73.9154 1630.91,90.7314 1896,145.7344 C1902.13,147.0064 1908.45,148.5914 1914.72,150.3434 " fill="none" style="stroke: #A80036; stroke-width: 1.0;"/><polygon fill="#A80036" points="1927.43,154.1264,1919.941,147.7299,1922.6369,152.7031,1917.6637,155.3989,1927.43,154.1264" style="stroke: #A80036; stroke-width: 1.0;"/><line style="stroke: #A80036; stroke-width: 1.0;" x1="1922.6369" x2="1914.975" y1="152.7031" y2="150.4174"/><polygon fill="#A80036" points="1144.23,68.4314,1150.0995,72.6205,1156.2239,68.8138,1150.3544,64.6246,1144.23,68.4314" style="stroke: #A80036; stroke-width: 1.0;"/><path d="M238,211.0644 C238,227.6214 238,246.9484 238,263.4957 " fill="none" style="stroke: #A80036; stroke-width: 1.0;"/><polygon fill="#A80036" points="238,276.6192,242,267.6192,238,271.6192,234,267.6192,238,276.6192" style="stroke: #A80036; stroke-width: 1.0;"/><line style="stroke: #A80036; stroke-width: 1.0;" x1="238" x2="238" y1="271.6192" y2="263.6191"/><polygon fill="#A80036" points="238,197.9134,234,203.9134,238,209.9134,242,203.9134,238,197.9134" style="stroke: #A80036; stroke-width: 1.0;"/><path d="M860,204.8304 C860,222.5354 860,244.6424 860,263.2683 " fill="none" style="stroke: #A80036; stroke-width: 1.0;"/><polygon fill="#A80036" points="860,276.4021,864,267.4021,860,271.4021,856,267.4021,860,276.4021" style="stroke: #A80036; stroke-width: 1.0;"/><line style="stroke: #A80036; stroke-width: 1.0;" x1="860" x2="860" y1="271.4021" y2="263.402"/><polygon fill="#A80036" points="860,191.7684,856,197.7684,860,203.7684,864,197.7684,860,191.7684" style="stroke: #A80036; stroke-width: 1.0;"/><path d="M468,205.1844 C468,217.0654 468,230.8904 468,244.3044 " fill="none" style="stroke: #A80036; stroke-width: 1.0;"/><polygon fill="#A80036" points="468,257.4922,472,248.4922,468,252.4922,464,248.4922,468,257.4922" style="stroke: #A80036; stroke-width: 1.0;"/><line style="stroke: #A80036; stroke-width: 1.0;" x1="468" x2="468" y1="252.4922" y2="244.4924"/><polygon fill="#A80036" points="468,191.7684,464,197.7684,468,203.7684,472,197.7684,468,191.7684" style="stroke: #A80036; stroke-width: 1.0;"/></g></svg>