<?xml version="1.0" encoding="UTF-8" standalone="yes"?><svg xmlns="http://www.w3.org/2000/svg" xmlns:xlink="http://www.w3.org/1999/xlink" height="506px" style="width:625px;height:506px;" version="1.1" viewBox="0 0 625 506" width="625px"><defs><filter height="300%" id="f1" width="300%" x="-1" y="-1"><feGaussianBlur result="blurOut" stdDeviation="2.0"/><feColorMatrix in="blurOut" result="blurOut2" type="matrix" values="0 0 0 0 0 0 0 0 0 0 0 0 0 0 0 0 0 0 .4 0"/><feOffset dx="4.0" dy="4.0" in="blurOut2" result="blurOut3"/><feBlend in="SourceGraphic" in2="blurOut3" mode="normal"/></filter></defs><g><text fill="#000000" font-family="sans-serif" font-size="14" font-weight="bold" lengthAdjust="spacingAndGlyphs" textLength="163" x="228.75" y="21.5332">Simulation of Rx output</text><rect fill="#FEFECE" filter="url(#f1)" height="31.6094" style="stroke: #A80036; stroke-width: 1.5;" width="47" x="0" y="31.6094"/><text fill="#000000" font-family="sans-serif" font-size="14" lengthAdjust="spacingAndGlyphs" textLength="33" x="7" y="53.1426">S치ga</text><rect fill="#FEFECE" filter="url(#f1)" height="31.6094" style="stroke: #A80036; stroke-width: 1.5;" width="121" x="51" y="31.6094"/><text fill="#000000" font-family="sans-serif" font-size="14" lengthAdjust="spacingAndGlyphs" textLength="95" x="58" y="53.1426">S치gaRxModule</text><rect fill="#FEFECE" filter="url(#f1)" height="31.6094" style="stroke: #A80036; stroke-width: 1.5;" width="115" x="214" y="31.6094"/><text fill="#000000" font-family="sans-serif" font-size="14" lengthAdjust="spacingAndGlyphs" textLength="89" x="221" y="53.1426">VSSRxModule</text><rect fill="#FEFECE" filter="url(#f1)" height="31.6094" style="stroke: #A80036; stroke-width: 1.5;" width="144" x="369.5" y="31.6094"/><text fill="#000000" font-family="sans-serif" font-size="14" lengthAdjust="spacingAndGlyphs" textLength="118" x="376.5" y="53.1426">LoadRecieverData</text><rect fill="#FEFECE" filter="url(#f1)" height="31.6094" style="stroke: #A80036; stroke-width: 1.5;" width="99" x="517.5" y="31.6094"/><text fill="#000000" font-family="sans-serif" font-size="14" lengthAdjust="spacingAndGlyphs" textLength="73" x="524.5" y="53.1426">WriteToFile</text><line style="stroke: #A80036; stroke-width: 1.0; stroke-dasharray: 5.0,5.0;" x1="25.5" x2="25.5" y1="68.2188" y2="465.7344"/><line style="stroke: #A80036; stroke-width: 1.0; stroke-dasharray: 5.0,5.0;" x1="113.5" x2="113.5" y1="68.2188" y2="465.7344"/><rect fill="#FFFFFF" filter="url(#f1)" height="381.5156" style="stroke: #A80036; stroke-width: 1.0;" width="10" x="108.5" y="74.2188"/><line style="stroke: #A80036; stroke-width: 1.0; stroke-dasharray: 5.0,5.0;" x1="273.5" x2="273.5" y1="68.2188" y2="465.7344"/><rect fill="#FFFFFF" filter="url(#f1)" height="226.4609" style="stroke: #A80036; stroke-width: 1.0;" width="10" x="268.5" y="229.2734"/><rect fill="#FFFFFF" filter="url(#f1)" height="197.7578" style="stroke: #A80036; stroke-width: 1.0;" width="10" x="273.5" y="257.9766"/><rect fill="#FFFFFF" filter="url(#f1)" height="177.7578" style="stroke: #A80036; stroke-width: 1.0;" width="10" x="278.5" y="277.9766"/><line style="stroke: #A80036; stroke-width: 1.0; stroke-dasharray: 5.0,5.0;" x1="443.5" x2="443.5" y1="68.2188" y2="465.7344"/><rect fill="#FFFFFF" filter="url(#f1)" height="66.7031" style="stroke: #A80036; stroke-width: 1.0;" width="10" x="438.5" y="315.9766"/><line style="stroke: #A80036; stroke-width: 1.0; stroke-dasharray: 5.0,5.0;" x1="569" x2="569" y1="68.2188" y2="465.7344"/><rect fill="#FFFFFF" filter="url(#f1)" height="42.3516" style="stroke: #A80036; stroke-width: 1.0;" width="10" x="564" y="413.3828"/><rect fill="#FEFECE" filter="url(#f1)" height="31.6094" style="stroke: #A80036; stroke-width: 1.5;" width="47" x="0" y="465.7344"/><text fill="#000000" font-family="sans-serif" font-size="14" lengthAdjust="spacingAndGlyphs" textLength="33" x="7" y="487.2676">S치ga</text><rect fill="#FEFECE" filter="url(#f1)" height="31.6094" style="stroke: #A80036; stroke-width: 1.5;" width="121" x="51" y="465.7344"/><text fill="#000000" font-family="sans-serif" font-size="14" lengthAdjust="spacingAndGlyphs" textLength="95" x="58" y="487.2676">S치gaRxModule</text><rect fill="#FEFECE" filter="url(#f1)" height="31.6094" style="stroke: #A80036; stroke-width: 1.5;" width="115" x="214" y="465.7344"/><text fill="#000000" font-family="sans-serif" font-size="14" lengthAdjust="spacingAndGlyphs" textLength="89" x="221" y="487.2676">VSSRxModule</text><rect fill="#FEFECE" filter="url(#f1)" height="31.6094" style="stroke: #A80036; stroke-width: 1.5;" width="144" x="369.5" y="465.7344"/><text fill="#000000" font-family="sans-serif" font-size="14" lengthAdjust="spacingAndGlyphs" textLength="118" x="376.5" y="487.2676">LoadRecieverData</text><rect fill="#FEFECE" filter="url(#f1)" height="31.6094" style="stroke: #A80036; stroke-width: 1.5;" width="99" x="517.5" y="465.7344"/><text fill="#000000" font-family="sans-serif" font-size="14" lengthAdjust="spacingAndGlyphs" textLength="73" x="524.5" y="487.2676">WriteToFile</text><polygon fill="#A80036" points="96.5,70.2188,106.5,74.2188,96.5,78.2188,100.5,74.2188" style="stroke: #A80036; stroke-width: 1.0;"/><line style="stroke: #A80036; stroke-width: 1.0;" x1="25.5" x2="102.5" y1="74.2188" y2="74.2188"/><line style="stroke: #A80036; stroke-width: 1.0;" x1="118.5" x2="160.5" y1="157.2734" y2="157.2734"/><line style="stroke: #A80036; stroke-width: 1.0;" x1="160.5" x2="160.5" y1="157.2734" y2="170.2734"/><line style="stroke: #A80036; stroke-width: 1.0;" x1="119.5" x2="160.5" y1="170.2734" y2="170.2734"/><polygon fill="#A80036" points="129.5,166.2734,119.5,170.2734,129.5,174.2734,125.5,170.2734" style="stroke: #A80036; stroke-width: 1.0;"/><text fill="#000000" font-family="sans-serif" font-size="13" lengthAdjust="spacingAndGlyphs" textLength="60" x="125.5" y="119.7139">generating</text><text fill="#000000" font-family="sans-serif" font-size="13" lengthAdjust="spacingAndGlyphs" textLength="61" x="129.5" y="136.0654">powershell</text><text fill="#000000" font-family="sans-serif" font-size="13" lengthAdjust="spacingAndGlyphs" textLength="32" x="129.5" y="152.417">script</text><polygon fill="#A80036" points="261.5,212.2734,271.5,216.2734,261.5,220.2734,265.5,216.2734" style="stroke: #A80036; stroke-width: 1.0;"/><line style="stroke: #A80036; stroke-width: 1.0;" x1="118.5" x2="267.5" y1="216.2734" y2="216.2734"/><text fill="#000000" font-family="sans-serif" font-size="13" lengthAdjust="spacingAndGlyphs" textLength="132" x="125.5" y="195.7686">COM-call to VSS dock</text><text fill="#000000" font-family="sans-serif" font-size="13" lengthAdjust="spacingAndGlyphs" textLength="96" x="129.5" y="212.1201">using powershell</text><line style="stroke: #A80036; stroke-width: 1.0;" x1="273.5" x2="320.5" y1="216.9766" y2="216.9766"/><line style="stroke: #A80036; stroke-width: 1.0;" x1="320.5" x2="320.5" y1="216.9766" y2="229.9766"/><line style="stroke: #A80036; stroke-width: 1.0;" x1="279.5" x2="320.5" y1="229.9766" y2="229.9766"/><polygon fill="#A80036" points="289.5,225.9766,279.5,229.9766,289.5,233.9766,285.5,229.9766" style="stroke: #A80036; stroke-width: 1.0;"/><text fill="#000000" font-family="sans-serif" font-size="13" lengthAdjust="spacingAndGlyphs" textLength="78" x="285.5" y="195.7686">start  parallell</text><text fill="#000000" font-family="sans-serif" font-size="13" lengthAdjust="spacingAndGlyphs" textLength="66" x="289.5" y="212.1201">simulations</text><polygon fill="#A80036" points="426.5,311.9766,436.5,315.9766,426.5,319.9766,430.5,315.9766" style="stroke: #A80036; stroke-width: 1.0;"/><line style="stroke: #A80036; stroke-width: 1.0;" x1="288.5" x2="432.5" y1="315.9766" y2="315.9766"/><text fill="#000000" font-family="sans-serif" font-size="13" lengthAdjust="spacingAndGlyphs" textLength="40" x="295.5" y="295.4717">Size of</text><text fill="#000000" font-family="sans-serif" font-size="13" lengthAdjust="spacingAndGlyphs" textLength="94" x="303.5" y="311.8232">simulation buffer</text><polygon fill="#A80036" points="299.5,378.6797,289.5,382.6797,299.5,386.6797,295.5,382.6797" style="stroke: #A80036; stroke-width: 1.0;"/><line style="stroke: #A80036; stroke-width: 1.0; stroke-dasharray: 2.0,2.0;" x1="293.5" x2="442.5" y1="382.6797" y2="382.6797"/><text fill="#000000" font-family="sans-serif" font-size="13" lengthAdjust="spacingAndGlyphs" textLength="52" x="305.5" y="362.1748">Vector of</text><text fill="#000000" font-family="sans-serif" font-size="13" lengthAdjust="spacingAndGlyphs" textLength="81" x="309.5" y="378.5264">wave samples</text><polygon fill="#A80036" points="552,409.3828,562,413.3828,552,417.3828,556,413.3828" style="stroke: #A80036; stroke-width: 1.0;"/><line style="stroke: #A80036; stroke-width: 1.0;" x1="288.5" x2="558" y1="413.3828" y2="413.3828"/><text fill="#000000" font-family="sans-serif" font-size="13" lengthAdjust="spacingAndGlyphs" textLength="56" x="295.5" y="408.8779">Rx output</text><polygon fill="#A80036" points="129.5,443.7344,119.5,447.7344,129.5,451.7344,125.5,447.7344" style="stroke: #A80036; stroke-width: 1.0;"/><line style="stroke: #A80036; stroke-width: 1.0; stroke-dasharray: 2.0,2.0;" x1="123.5" x2="272.5" y1="447.7344" y2="447.7344"/><polygon fill="#A80036" points="36.5,443.7344,26.5,447.7344,36.5,451.7344,32.5,447.7344" style="stroke: #A80036; stroke-width: 1.0;"/><line style="stroke: #A80036; stroke-width: 1.0; stroke-dasharray: 2.0,2.0;" x1="30.5" x2="112.5" y1="447.7344" y2="447.7344"/></g></svg>