<?xml version="1.0" encoding="UTF-8" standalone="yes"?><svg xmlns="http://www.w3.org/2000/svg" xmlns:xlink="http://www.w3.org/1999/xlink" height="1852px" style="width:492px;height:1852px;" version="1.1" viewBox="0 0 492 1852" width="492px"><defs><filter height="300%" id="f1" width="300%" x="-1" y="-1"><feGaussianBlur result="blurOut" stdDeviation="2.0"/><feColorMatrix in="blurOut" result="blurOut2" type="matrix" values="0 0 0 0 0 0 0 0 0 0 0 0 0 0 0 0 0 0 .4 0"/><feOffset dx="4.0" dy="4.0" in="blurOut2" result="blurOut3"/><feBlend in="SourceGraphic" in2="blurOut3" mode="normal"/></filter></defs><g><text fill="#000000" font-family="sans-serif" font-size="30" font-weight="bold" lengthAdjust="spacingAndGlyphs" textLength="217" x="138" y="31.1426">Sága Workflow</text><ellipse cx="16" cy="63.2344" fill="#000000" filter="url(#f1)" rx="10" ry="10" style="stroke: none; stroke-width: 1.0;"/><rect fill="#FEFECE" filter="url(#f1)" height="35.0938" rx="12.5" ry="12.5" style="stroke: #A80036; stroke-width: 1.5;" width="146" x="66" y="45.7344"/><text fill="#000000" font-family="sans-serif" font-size="12" lengthAdjust="spacingAndGlyphs" textLength="117" x="76" y="68.1914">Set Sága parameters</text><rect fill="#FEFECE" filter="url(#f1)" height="35.0938" rx="12.5" ry="12.5" style="stroke: #A80036; stroke-width: 1.5;" width="49" x="251.5" y="45.7344"/><text fill="#000000" font-family="sans-serif" font-size="12" lengthAdjust="spacingAndGlyphs" textLength="29" x="261.5" y="68.1914">Sága</text><polygon fill="#FEFECE" filter="url(#f1)" points="276,127.2344,288,139.2344,276,151.2344,264,139.2344,276,127.2344" style="stroke: #A80036; stroke-width: 1.5;"/><rect fill="#000000" filter="url(#f1)" height="8" style="stroke: none; stroke-width: 1.0;" width="80" x="274" y="214.7344"/><rect fill="#FEFECE" filter="url(#f1)" height="35.0938" rx="12.5" ry="12.5" style="stroke: #A80036; stroke-width: 1.5;" width="110" x="332" y="121.7344"/><text fill="#000000" font-family="sans-serif" font-size="12" lengthAdjust="spacingAndGlyphs" textLength="81" x="342" y="144.1914">SágaTxModule</text><polygon fill="#FEFECE" filter="url(#f1)" points="314,269.2344,326,281.2344,314,293.2344,302,281.2344,314,269.2344" style="stroke: #A80036; stroke-width: 1.5;"/><rect fill="#FEFECE" filter="url(#f1)" height="35.0938" rx="12.5" ry="12.5" style="stroke: #A80036; stroke-width: 1.5;" width="159" x="99.5" y="263.7344"/><text fill="#000000" font-family="sans-serif" font-size="12" lengthAdjust="spacingAndGlyphs" textLength="136" x="109.5" y="286.1914">SágaPropagationModule</text><rect fill="#000000" filter="url(#f1)" height="8" style="stroke: none; stroke-width: 1.0;" width="80" x="182" y="356.7344"/><polygon fill="#FEFECE" filter="url(#f1)" points="222,411.2344,234,423.2344,222,435.2344,210,423.2344,222,411.2344" style="stroke: #A80036; stroke-width: 1.5;"/><rect fill="#FEFECE" filter="url(#f1)" height="35.0938" rx="12.5" ry="12.5" style="stroke: #A80036; stroke-width: 1.5;" width="179" x="277.5" y="405.7344"/><text fill="#000000" font-family="sans-serif" font-size="12" lengthAdjust="spacingAndGlyphs" textLength="150" x="287.5" y="428.1914">PeriodicInterferenceModule</text><rect fill="#000000" filter="url(#f1)" height="8" style="stroke: none; stroke-width: 1.0;" width="80" x="229" y="498.7344"/><polygon fill="#FEFECE" filter="url(#f1)" points="269,553.2344,281,565.2344,269,577.2344,257,565.2344,269,553.2344" style="stroke: #A80036; stroke-width: 1.5;"/><rect fill="#FEFECE" filter="url(#f1)" height="35.0938" rx="12.5" ry="12.5" style="stroke: #A80036; stroke-width: 1.5;" width="110" x="103" y="547.7344"/><text fill="#000000" font-family="sans-serif" font-size="12" lengthAdjust="spacingAndGlyphs" textLength="81" x="113" y="570.1914">EchoExtraction</text><rect fill="#000000" filter="url(#f1)" height="8" style="stroke: none; stroke-width: 1.0;" width="80" x="155" y="640.7344"/><polygon fill="#FEFECE" filter="url(#f1)" points="195,695.2344,207,707.2344,195,719.2344,183,707.2344,195,695.2344" style="stroke: #A80036; stroke-width: 1.5;"/><rect fill="#000000" filter="url(#f1)" height="8" style="stroke: none; stroke-width: 1.0;" width="80" x="208" y="782.7344"/><rect fill="#FEFECE" filter="url(#f1)" height="35.0938" rx="12.5" ry="12.5" style="stroke: #A80036; stroke-width: 1.5;" width="224" x="251" y="689.7344"/><text fill="#000000" font-family="sans-serif" font-size="12" lengthAdjust="spacingAndGlyphs" textLength="192" x="261" y="712.1914">SágaWavePropDisturbanceModule</text><polygon fill="#FEFECE" filter="url(#f1)" points="248,837.2344,260,849.2344,248,861.2344,236,849.2344,248,837.2344" style="stroke: #A80036; stroke-width: 1.5;"/><rect fill="#000000" filter="url(#f1)" height="8" style="stroke: none; stroke-width: 1.0;" width="80" x="250" y="924.7344"/><rect fill="#FEFECE" filter="url(#f1)" height="35.0938" rx="12.5" ry="12.5" style="stroke: #A80036; stroke-width: 1.5;" width="141" x="303.5" y="831.7344"/><text fill="#000000" font-family="sans-serif" font-size="12" lengthAdjust="spacingAndGlyphs" textLength="121" x="313.5" y="854.1914">SágaRxModule (echo)</text><polygon fill="#FEFECE" filter="url(#f1)" points="290,979.2344,302,991.2344,290,1003.2344,278,991.2344,290,979.2344" style="stroke: #A80036; stroke-width: 1.5;"/><rect fill="#FEFECE" filter="url(#f1)" height="35.0938" rx="12.5" ry="12.5" style="stroke: #A80036; stroke-width: 1.5;" width="152" x="82" y="973.7344"/><text fill="#000000" font-family="sans-serif" font-size="12" lengthAdjust="spacingAndGlyphs" textLength="132" x="92" y="996.1914">SágaRxModule (disturb)</text><rect fill="#000000" filter="url(#f1)" height="8" style="stroke: none; stroke-width: 1.0;" width="80" x="160" y="1066.7344"/><polygon fill="#FEFECE" filter="url(#f1)" points="200,1121.2344,212,1133.2344,200,1145.2344,188,1133.2344,200,1121.2344" style="stroke: #A80036; stroke-width: 1.5;"/><rect fill="#000000" filter="url(#f1)" height="8" style="stroke: none; stroke-width: 1.0;" width="80" x="203" y="1208.7344"/><rect fill="#FEFECE" filter="url(#f1)" height="35.0938" rx="12.5" ry="12.5" style="stroke: #A80036; stroke-width: 1.5;" width="149" x="255.5" y="1115.7344"/><text fill="#000000" font-family="sans-serif" font-size="12" lengthAdjust="spacingAndGlyphs" textLength="120" x="265.5" y="1138.1914">ConcatenateRxOutput</text><polygon fill="#FEFECE" filter="url(#f1)" points="243,1263.2344,255,1275.2344,243,1287.2344,231,1275.2344,243,1263.2344" style="stroke: #A80036; stroke-width: 1.5;"/><rect fill="#FEFECE" filter="url(#f1)" height="35.0938" rx="12.5" ry="12.5" style="stroke: #A80036; stroke-width: 1.5;" width="142" x="45" y="1257.7344"/><text fill="#000000" font-family="sans-serif" font-size="12" lengthAdjust="spacingAndGlyphs" textLength="122" x="55" y="1280.1914">SágaSamplingModule</text><rect fill="#000000" filter="url(#f1)" height="8" style="stroke: none; stroke-width: 1.0;" width="80" x="150" y="1350.7344"/><polygon fill="#FEFECE" filter="url(#f1)" points="190,1405.2344,202,1417.2344,190,1429.2344,178,1417.2344,190,1405.2344" style="stroke: #A80036; stroke-width: 1.5;"/><rect fill="#FEFECE" filter="url(#f1)" height="35.0938" rx="12.5" ry="12.5" style="stroke: #A80036; stroke-width: 1.5;" width="125" x="9.5" y="1399.7344"/><text fill="#000000" font-family="sans-serif" font-size="12" lengthAdjust="spacingAndGlyphs" textLength="96" x="19.5" y="1422.1914">SignalCorrelation</text><rect fill="#000000" filter="url(#f1)" height="8" style="stroke: none; stroke-width: 1.0;" width="80" x="101" y="1492.7344"/><polygon fill="#FEFECE" filter="url(#f1)" points="141,1547.2344,153,1559.2344,141,1571.2344,129,1559.2344,141,1547.2344" style="stroke: #A80036; stroke-width: 1.5;"/><rect fill="#000000" filter="url(#f1)" height="8" style="stroke: none; stroke-width: 1.0;" width="80" x="166" y="1634.7344"/><rect fill="#FEFECE" filter="url(#f1)" height="35.0938" rx="12.5" ry="12.5" style="stroke: #A80036; stroke-width: 1.5;" width="115" x="196.5" y="1541.7344"/><text fill="#000000" font-family="sans-serif" font-size="12" lengthAdjust="spacingAndGlyphs" textLength="95" x="206.5" y="1564.1914">BeamShapeSum</text><polygon fill="#FEFECE" filter="url(#f1)" points="206,1689.2344,218,1701.2344,206,1713.2344,194,1701.2344,206,1689.2344" style="stroke: #A80036; stroke-width: 1.5;"/><rect fill="#000000" filter="url(#f1)" height="8" style="stroke: none; stroke-width: 1.0;" width="80" x="231" y="1776.7344"/><rect fill="#FEFECE" filter="url(#f1)" height="35.0938" rx="12.5" ry="12.5" style="stroke: #A80036; stroke-width: 1.5;" width="117" x="261.5" y="1683.7344"/><text fill="#000000" font-family="sans-serif" font-size="12" lengthAdjust="spacingAndGlyphs" textLength="88" x="271.5" y="1706.1914">DopplerFiltering</text><ellipse cx="271" cy="1835.7344" fill="none" filter="url(#f1)" rx="10" ry="10" style="stroke: #000000; stroke-width: 1.0;"/><ellipse cx="271.5" cy="1836.2344" fill="#000000" rx="6" ry="6" style="stroke: none; stroke-width: 1.0;"/><path d="M26.0898,63.2344 C37.5642,63.2344 49.0385,63.2344 60.5128,63.2344 " fill="none" style="stroke: #A80036; stroke-width: 1.0;"/><polygon fill="#A80036" points="65.7848,63.2344,56.7848,59.2344,60.7848,63.2344,56.7848,67.2344,65.7848,63.2344" style="stroke: #A80036; stroke-width: 1.0;"/><path d="M212.049,63.2344 C223.314,63.2344 234.579,63.2344 245.843,63.2344 " fill="none" style="stroke: #A80036; stroke-width: 1.0;"/><polygon fill="#A80036" points="251.019,63.2344,242.019,59.2344,246.019,63.2344,242.019,67.2344,251.019,63.2344" style="stroke: #A80036; stroke-width: 1.0;"/><path d="M276,81.0244 C276,93.1544 276,109.4644 276,121.5644 " fill="none" style="stroke: #A80036; stroke-width: 1.0;"/><polygon fill="#A80036" points="276,126.7944,280,117.7944,276,121.7944,272,117.7944,276,126.7944" style="stroke: #A80036; stroke-width: 1.0;"/><text fill="#000000" font-family="sans-serif" font-size="13" lengthAdjust="spacingAndGlyphs" textLength="102" x="153.9188" y="116.3105">executeTxModule</text><path d="M279.644,147.6644 C286.857,162.3744 302.891,195.0744 310.217,210.0144 " fill="none" style="stroke: #A80036; stroke-width: 1.0;"/><polygon fill="#A80036" points="312.489,214.6544,312.1198,204.8124,310.2884,210.1647,304.9362,208.3333,312.489,214.6544" style="stroke: #A80036; stroke-width: 1.0;"/><text fill="#000000" font-family="sans-serif" font-size="13" lengthAdjust="spacingAndGlyphs" textLength="27" x="302" y="191.2295">false</text><path d="M288.303,139.2344 C297.905,139.2344 312.021,139.2344 326.592,139.2344 " fill="none" style="stroke: #A80036; stroke-width: 1.0;"/><polygon fill="#A80036" points="331.974,139.2344,322.974,135.2344,326.974,139.2344,322.974,143.2344,331.974,139.2344" style="stroke: #A80036; stroke-width: 1.0;"/><text fill="#000000" font-family="sans-serif" font-size="13" lengthAdjust="spacingAndGlyphs" textLength="22" x="299" y="132.7295">true</text><path d="M371.16,157.0544 C355.325,173.8644 331.754,198.8844 320.473,210.8644 " fill="none" style="stroke: #A80036; stroke-width: 1.0;"/><polygon fill="#A80036" points="316.91,214.6444,325.9926,210.8356,320.3382,211.0047,320.1691,205.3504,316.91,214.6444" style="stroke: #A80036; stroke-width: 1.0;"/><path d="M314,222.9844 C314,230.5244 314,249.6344 314,263.7044 " fill="none" style="stroke: #A80036; stroke-width: 1.0;"/><polygon fill="#A80036" points="314,269.0044,318,260.0044,314,264.0044,310,260.0044,314,269.0044" style="stroke: #A80036; stroke-width: 1.0;"/><text fill="#000000" font-family="sans-serif" font-size="13" lengthAdjust="spacingAndGlyphs" textLength="157" x="334.1156" y="261.3606">executePropagationModule</text><path d="M263.812,281.2344 C278.76,281.2344 292.493,281.2344 301.8,281.2344 " fill="none" style="stroke: #A80036; stroke-width: 1.0;"/><polygon fill="#A80036" points="258.701,281.2344,267.701,285.2344,263.701,281.2344,267.701,277.2344,258.701,281.2344" style="stroke: #A80036; stroke-width: 1.0;"/><text fill="#000000" font-family="sans-serif" font-size="13" lengthAdjust="spacingAndGlyphs" textLength="22" x="269.25" y="274.7295">true</text><path d="M188.33,299.0544 C197.494,315.5644 211.056,340.0144 217.831,352.2244 " fill="none" style="stroke: #A80036; stroke-width: 1.0;"/><polygon fill="#A80036" points="220.286,356.6444,219.4132,346.8343,217.8584,352.2733,212.4194,350.7184,220.286,356.6444" style="stroke: #A80036; stroke-width: 1.0;"/><path d="M307.964,287.3144 C291.749,300.9744 247.272,338.4444 229.49,353.4244 " fill="none" style="stroke: #A80036; stroke-width: 1.0;"/><polygon fill="#A80036" points="225.578,356.7244,235.0348,353.9732,229.3979,353.4982,229.8729,347.8613,225.578,356.7244" style="stroke: #A80036; stroke-width: 1.0;"/><text fill="#000000" font-family="sans-serif" font-size="13" lengthAdjust="spacingAndGlyphs" textLength="27" x="269" y="333.2295">false</text><path d="M222,364.9844 C222,372.5244 222,391.6344 222,405.7044 " fill="none" style="stroke: #A80036; stroke-width: 1.0;"/><polygon fill="#A80036" points="222,411.0044,226,402.0044,222,406.0044,218,402.0044,222,411.0044" style="stroke: #A80036; stroke-width: 1.0;"/><text fill="#000000" font-family="sans-serif" font-size="13" lengthAdjust="spacingAndGlyphs" textLength="202" x="0.1156" y="404.5513">executePeriodicInterferenceModule</text><path d="M234.363,423.2344 C243.592,423.2344 257.152,423.2344 272.124,423.2344 " fill="none" style="stroke: #A80036; stroke-width: 1.0;"/><polygon fill="#A80036" points="277.251,423.2344,268.251,419.2344,272.251,423.2344,268.251,427.2344,277.251,423.2344" style="stroke: #A80036; stroke-width: 1.0;"/><text fill="#000000" font-family="sans-serif" font-size="13" lengthAdjust="spacingAndGlyphs" textLength="22" x="244.75" y="416.7295">true</text><path d="M345.735,441.0544 C324.104,458.1544 291.721,483.7644 276.908,495.4844 " fill="none" style="stroke: #A80036; stroke-width: 1.0;"/><polygon fill="#A80036" points="272.906,498.6444,282.4442,496.1903,276.825,495.5392,277.476,489.92,272.906,498.6444" style="stroke: #A80036; stroke-width: 1.0;"/><path d="M226.171,431.1144 C234.971,445.6244 255.375,479.2644 264.477,494.2744 " fill="none" style="stroke: #A80036; stroke-width: 1.0;"/><polygon fill="#A80036" points="267.097,498.5944,265.8625,488.8232,264.5096,494.3159,259.0169,492.963,267.097,498.5944" style="stroke: #A80036; stroke-width: 1.0;"/><text fill="#000000" font-family="sans-serif" font-size="13" lengthAdjust="spacingAndGlyphs" textLength="27" x="254" y="475.2295">false</text><path d="M269,506.9844 C269,514.5244 269,533.6344 269,547.7044 " fill="none" style="stroke: #A80036; stroke-width: 1.0;"/><polygon fill="#A80036" points="269,553.0044,273,544.0044,269,548.0044,265,544.0044,269,553.0044" style="stroke: #A80036; stroke-width: 1.0;"/><text fill="#000000" font-family="sans-serif" font-size="13" lengthAdjust="spacingAndGlyphs" textLength="177" x="289.4656" y="545.862">executeEchoExtractionModule</text><path d="M218.525,565.2344 C233.01,565.2344 247.034,565.2344 256.608,565.2344 " fill="none" style="stroke: #A80036; stroke-width: 1.0;"/><polygon fill="#A80036" points="213.175,565.2344,222.175,569.2344,218.175,565.2344,222.175,561.2344,213.175,565.2344" style="stroke: #A80036; stroke-width: 1.0;"/><text fill="#000000" font-family="sans-serif" font-size="13" lengthAdjust="spacingAndGlyphs" textLength="22" x="224" y="558.7295">true</text><path d="M166.028,583.0544 C173.843,599.4244 185.375,623.5744 191.255,635.8944 " fill="none" style="stroke: #A80036; stroke-width: 1.0;"/><polygon fill="#A80036" points="193.525,640.6444,193.2513,630.7993,191.3681,636.1335,186.0339,634.2503,193.525,640.6444" style="stroke: #A80036; stroke-width: 1.0;"/><path d="M263.438,572.0644 C250.042,586.0844 216.036,621.7044 201.62,636.8044 " fill="none" style="stroke: #A80036; stroke-width: 1.0;"/><polygon fill="#A80036" points="198.107,640.4844,207.2178,636.7437,201.5624,636.8705,201.4356,631.2151,198.107,640.4844" style="stroke: #A80036; stroke-width: 1.0;"/><text fill="#000000" font-family="sans-serif" font-size="13" lengthAdjust="spacingAndGlyphs" textLength="27" x="233" y="617.2295">false</text><path d="M195,648.9844 C195,656.5244 195,675.6344 195,689.7044 " fill="none" style="stroke: #A80036; stroke-width: 1.0;"/><polygon fill="#A80036" points="195,695.0044,199,686.0044,195,690.0044,191,686.0044,195,695.0044" style="stroke: #A80036; stroke-width: 1.0;"/><text fill="#000000" font-family="sans-serif" font-size="13" lengthAdjust="spacingAndGlyphs" textLength="157" x="17.8844" y="687.3606">executeDisturbanceModule</text><path d="M199.519,714.8444 C209.325,729.1844 232.504,763.0744 242.854,778.2044 " fill="none" style="stroke: #A80036; stroke-width: 1.0;"/><polygon fill="#A80036" points="245.834,782.5644,244.0684,772.8751,243.0171,778.4334,237.4588,777.3821,245.834,782.5644" style="stroke: #A80036; stroke-width: 1.0;"/><text fill="#000000" font-family="sans-serif" font-size="13" lengthAdjust="spacingAndGlyphs" textLength="27" x="231" y="759.2295">false</text><path d="M207.082,707.2344 C216.275,707.2344 229.96,707.2344 245.47,707.2344 " fill="none" style="stroke: #A80036; stroke-width: 1.0;"/><polygon fill="#A80036" points="250.796,707.2344,241.796,703.2344,245.796,707.2344,241.796,711.2344,250.796,707.2344" style="stroke: #A80036; stroke-width: 1.0;"/><text fill="#000000" font-family="sans-serif" font-size="13" lengthAdjust="spacingAndGlyphs" textLength="22" x="218" y="700.7295">true</text><path d="M338.33,724.8644 C312.751,742.0944 274.139,768.1144 256.881,779.7544 " fill="none" style="stroke: #A80036; stroke-width: 1.0;"/><polygon fill="#A80036" points="252.608,782.6244,262.3061,780.908,256.7532,779.8285,257.8327,774.2756,252.608,782.6244" style="stroke: #A80036; stroke-width: 1.0;"/><path d="M248,790.9844 C248,798.5244 248,817.6344 248,831.7044 " fill="none" style="stroke: #A80036; stroke-width: 1.0;"/><polygon fill="#A80036" points="248,837.0044,252,828.0044,248,832.0044,244,828.0044,248,837.0044" style="stroke: #A80036; stroke-width: 1.0;"/><text fill="#000000" font-family="sans-serif" font-size="13" lengthAdjust="spacingAndGlyphs" textLength="134" x="94.3188" y="828.6086">executeRxModuleEcho</text><path d="M251.876,857.3864 C259.762,871.9374 277.615,904.8814 285.781,919.9494 " fill="none" style="stroke: #A80036; stroke-width: 1.0;"/><polygon fill="#A80036" points="288.315,924.6244,287.5424,914.8059,285.9322,920.2287,280.5093,918.6184,288.315,924.6244" style="stroke: #A80036; stroke-width: 1.0;"/><text fill="#000000" font-family="sans-serif" font-size="13" lengthAdjust="spacingAndGlyphs" textLength="27" x="277" y="901.2295">false</text><path d="M260.081,849.2344 C269.489,849.2344 283.421,849.2344 298.342,849.2344 " fill="none" style="stroke: #A80036; stroke-width: 1.0;"/><polygon fill="#A80036" points="303.434,849.2344,294.434,845.2344,298.434,849.2344,294.434,853.2344,303.434,849.2344" style="stroke: #A80036; stroke-width: 1.0;"/><text fill="#000000" font-family="sans-serif" font-size="13" lengthAdjust="spacingAndGlyphs" textLength="22" x="270.75" y="842.7295">true</text><path d="M355.773,867.0504 C337.392,884.0094 309.953,909.3254 297.11,921.1744 " fill="none" style="stroke: #A80036; stroke-width: 1.0;"/><polygon fill="#A80036" points="293.348,924.6454,302.6751,921.4822,297.0228,921.2548,297.2502,915.6025,293.348,924.6454" style="stroke: #A80036; stroke-width: 1.0;"/><path d="M290,932.9874 C290,940.5274 290,959.6304 290,973.7054 " fill="none" style="stroke: #A80036; stroke-width: 1.0;"/><polygon fill="#A80036" points="290,979.0054,294,970.0054,290,974.0054,286,970.0054,290,979.0054" style="stroke: #A80036; stroke-width: 1.0;"/><text fill="#000000" font-family="sans-serif" font-size="13" lengthAdjust="spacingAndGlyphs" textLength="145" x="310.3906" y="970.8605">executeRxModuleDisturb</text><path d="M239.225,991.2344 C254.457,991.2344 268.546,991.2344 277.998,991.2344 " fill="none" style="stroke: #A80036; stroke-width: 1.0;"/><polygon fill="#A80036" points="234.02,991.2344,243.02,995.2344,239.02,991.2344,243.02,987.2344,234.02,991.2344" style="stroke: #A80036; stroke-width: 1.0;"/><text fill="#000000" font-family="sans-serif" font-size="13" lengthAdjust="spacingAndGlyphs" textLength="22" x="245" y="984.7295">true</text><path d="M167.113,1009.0504 C176.064,1025.5674 189.311,1050.0104 195.928,1062.2204 " fill="none" style="stroke: #A80036; stroke-width: 1.0;"/><polygon fill="#A80036" points="198.326,1066.6454,197.5534,1056.8269,195.9432,1062.2497,190.5203,1060.6394,198.326,1066.6454" style="stroke: #A80036; stroke-width: 1.0;"/><path d="M283.814,997.5614 C267.851,1011.3064 225.298,1047.9494 207.741,1063.0684 " fill="none" style="stroke: #A80036; stroke-width: 1.0;"/><polygon fill="#A80036" points="203.847,1066.4214,213.2768,1063.5791,207.6356,1063.1585,208.0562,1057.5173,203.847,1066.4214" style="stroke: #A80036; stroke-width: 1.0;"/><text fill="#000000" font-family="sans-serif" font-size="13" lengthAdjust="spacingAndGlyphs" textLength="27" x="246" y="1043.2295">false</text><path d="M200,1074.9874 C200,1082.5274 200,1101.6304 200,1115.7054 " fill="none" style="stroke: #A80036; stroke-width: 1.0;"/><polygon fill="#A80036" points="200,1121.0054,204,1112.0054,200,1116.0054,196,1112.0054,200,1121.0054" style="stroke: #A80036; stroke-width: 1.0;"/><text fill="#000000" font-family="sans-serif" font-size="13" lengthAdjust="spacingAndGlyphs" textLength="129" x="51.2469" y="1112.3592">executeConcatenation</text><path d="M203.968,1141.3864 C212.042,1155.9374 230.32,1188.8814 238.68,1203.9494 " fill="none" style="stroke: #A80036; stroke-width: 1.0;"/><polygon fill="#A80036" points="241.274,1208.6244,240.4061,1198.8138,238.8486,1204.252,233.4104,1202.6945,241.274,1208.6244" style="stroke: #A80036; stroke-width: 1.0;"/><text fill="#000000" font-family="sans-serif" font-size="13" lengthAdjust="spacingAndGlyphs" textLength="27" x="230" y="1185.2295">false</text><path d="M212.465,1133.2344 C221.829,1133.2344 235.537,1133.2344 250.314,1133.2344 " fill="none" style="stroke: #A80036; stroke-width: 1.0;"/><polygon fill="#A80036" points="255.361,1133.2344,246.361,1129.2344,250.361,1133.2344,246.361,1137.2344,255.361,1133.2344" style="stroke: #A80036; stroke-width: 1.0;"/><text fill="#000000" font-family="sans-serif" font-size="13" lengthAdjust="spacingAndGlyphs" textLength="22" x="222.75" y="1126.7295">true</text><path d="M311.122,1151.0504 C292.085,1168.0094 263.666,1193.3254 250.364,1205.1744 " fill="none" style="stroke: #A80036; stroke-width: 1.0;"/><polygon fill="#A80036" points="246.468,1208.6454,255.8487,1205.6451,250.2013,1205.3193,250.527,1199.6718,246.468,1208.6454" style="stroke: #A80036; stroke-width: 1.0;"/><path d="M243,1216.9874 C243,1224.5274 243,1243.6304 243,1257.7054 " fill="none" style="stroke: #A80036; stroke-width: 1.0;"/><polygon fill="#A80036" points="243,1263.0054,247,1254.0054,243,1258.0054,239,1254.0054,243,1263.0054" style="stroke: #A80036; stroke-width: 1.0;"/><text fill="#000000" font-family="sans-serif" font-size="13" lengthAdjust="spacingAndGlyphs" textLength="120" x="262.875" y="1253.8579">executeRxResample</text><path d="M192.436,1275.2344 C207.492,1275.2344 221.535,1275.2344 230.982,1275.2344 " fill="none" style="stroke: #A80036; stroke-width: 1.0;"/><polygon fill="#A80036" points="187.296,1275.2344,196.296,1279.2344,192.296,1275.2344,196.296,1271.2344,187.296,1275.2344" style="stroke: #A80036; stroke-width: 1.0;"/><text fill="#000000" font-family="sans-serif" font-size="13" lengthAdjust="spacingAndGlyphs" textLength="22" x="198" y="1268.7295">true</text><path d="M132.057,1293.0504 C148.109,1309.8624 172.002,1334.8854 183.439,1346.8624 " fill="none" style="stroke: #A80036; stroke-width: 1.0;"/><polygon fill="#A80036" points="187.051,1350.6454,183.7281,1341.374,183.5978,1347.0293,177.9425,1346.899,187.051,1350.6454" style="stroke: #A80036; stroke-width: 1.0;"/><path d="M238.481,1282.8424 C228.675,1297.1804 205.496,1331.0754 195.146,1346.2094 " fill="none" style="stroke: #A80036; stroke-width: 1.0;"/><polygon fill="#A80036" points="192.166,1350.5674,200.5473,1345.395,194.9878,1346.4397,193.9431,1340.8802,192.166,1350.5674" style="stroke: #A80036; stroke-width: 1.0;"/><text fill="#000000" font-family="sans-serif" font-size="13" lengthAdjust="spacingAndGlyphs" textLength="27" x="217" y="1327.2295">false</text><path d="M190,1358.9874 C190,1366.5274 190,1385.6304 190,1399.7054 " fill="none" style="stroke: #A80036; stroke-width: 1.0;"/><polygon fill="#A80036" points="190,1405.0054,194,1396.0054,190,1400.0054,186,1396.0054,190,1405.0054" style="stroke: #A80036; stroke-width: 1.0;"/><text fill="#000000" font-family="sans-serif" font-size="13" lengthAdjust="spacingAndGlyphs" textLength="155" x="209.8594" y="1397.3619">executePulseCompression</text><path d="M139.814,1417.2344 C154.528,1417.2344 168.493,1417.2344 177.938,1417.2344 " fill="none" style="stroke: #A80036; stroke-width: 1.0;"/><polygon fill="#A80036" points="134.8,1417.2344,143.8,1421.2344,139.8,1417.2344,143.8,1413.2344,134.8,1417.2344" style="stroke: #A80036; stroke-width: 1.0;"/><text fill="#000000" font-family="sans-serif" font-size="13" lengthAdjust="spacingAndGlyphs" textLength="22" x="145.25" y="1410.7295">true</text><path d="M86.972,1435.0504 C101.9394,1451.8624 124.218,1476.8854 134.882,1488.8624 " fill="none" style="stroke: #A80036; stroke-width: 1.0;"/><polygon fill="#A80036" points="138.25,1492.6454,135.2535,1483.2634,134.9254,1488.9108,129.2781,1488.5827,138.25,1492.6454" style="stroke: #A80036; stroke-width: 1.0;"/><path d="M185.652,1425.1124 C176.477,1439.6234 155.204,1473.2684 145.716,1488.2754 " fill="none" style="stroke: #A80036; stroke-width: 1.0;"/><polygon fill="#A80036" points="142.984,1492.5954,151.1734,1487.1242,145.6551,1488.3687,144.4107,1482.8504,142.984,1492.5954" style="stroke: #A80036; stroke-width: 1.0;"/><text fill="#000000" font-family="sans-serif" font-size="13" lengthAdjust="spacingAndGlyphs" textLength="27" x="166" y="1469.2295">false</text><path d="M141,1500.9874 C141,1508.5274 141,1527.6304 141,1541.7054 " fill="none" style="stroke: #A80036; stroke-width: 1.0;"/><polygon fill="#A80036" points="141,1547.0054,145,1538.0054,141,1542.0054,137,1538.0054,141,1547.0054" style="stroke: #A80036; stroke-width: 1.0;"/><text fill="#000000" font-family="sans-serif" font-size="13" lengthAdjust="spacingAndGlyphs" textLength="127" x="-6.2406" y="1538.1085">executeBeamForming</text><path d="M146.1,1566.3154 C157.926,1580.4154 187.173,1615.2874 199.91,1630.4734 " fill="none" style="stroke: #A80036; stroke-width: 1.0;"/><polygon fill="#A80036" points="203.295,1634.5094,200.5771,1625.043,200.0823,1630.6781,194.4471,1630.1833,203.295,1634.5094" style="stroke: #A80036; stroke-width: 1.0;"/><text fill="#000000" font-family="sans-serif" font-size="13" lengthAdjust="spacingAndGlyphs" textLength="27" x="185" y="1611.2295">false</text><path d="M153.093,1559.2344 C162.525,1559.2344 176.416,1559.2344 190.895,1559.2344 " fill="none" style="stroke: #A80036; stroke-width: 1.0;"/><polygon fill="#A80036" points="196.248,1559.2344,187.248,1555.2344,191.248,1559.2344,187.248,1563.2344,196.248,1559.2344" style="stroke: #A80036; stroke-width: 1.0;"/><text fill="#000000" font-family="sans-serif" font-size="13" lengthAdjust="spacingAndGlyphs" textLength="22" x="163.75" y="1552.7295">true</text><path d="M243.585,1577.0504 C233.355,1593.5674 218.216,1618.0104 210.654,1630.2204 " fill="none" style="stroke: #A80036; stroke-width: 1.0;"/><polygon fill="#A80036" points="207.913,1634.6454,216.0522,1629.0998,210.5455,1630.3945,209.2508,1624.8878,207.913,1634.6454" style="stroke: #A80036; stroke-width: 1.0;"/><path d="M206,1642.9874 C206,1650.5274 206,1669.6304 206,1683.7054 " fill="none" style="stroke: #A80036; stroke-width: 1.0;"/><polygon fill="#A80036" points="206,1689.0054,210,1680.0054,206,1684.0054,202,1680.0054,206,1689.0054" style="stroke: #A80036; stroke-width: 1.0;"/><text fill="#000000" font-family="sans-serif" font-size="13" lengthAdjust="spacingAndGlyphs" textLength="138" x="47.7312" y="1680.6099">ExecuteDopplerFiltering</text><path d="M211.1,1708.3154 C222.926,1722.4154 252.173,1757.2872 264.91,1772.4731 " fill="none" style="stroke: #A80036; stroke-width: 1.0;"/><polygon fill="#A80036" points="268.295,1776.5091,265.5767,1767.0428,265.0821,1772.678,259.4469,1772.1834,268.295,1776.5091" style="stroke: #A80036; stroke-width: 1.0;"/><text fill="#000000" font-family="sans-serif" font-size="13" lengthAdjust="spacingAndGlyphs" textLength="27" x="250" y="1753.2295">false</text><path d="M218.2,1701.2344 C227.664,1701.2344 241.579,1701.2344 256.101,1701.2344 " fill="none" style="stroke: #A80036; stroke-width: 1.0;"/><polygon fill="#A80036" points="261.471,1701.2344,252.471,1697.2344,256.471,1701.2344,252.471,1705.2344,261.471,1701.2344" style="stroke: #A80036; stroke-width: 1.0;"/><text fill="#000000" font-family="sans-serif" font-size="13" lengthAdjust="spacingAndGlyphs" textLength="22" x="228.75" y="1694.7295">true</text><path d="M309.368,1719.0504 C298.925,1735.5674 283.471,1760.0101 275.751,1772.2203 " fill="none" style="stroke: #A80036; stroke-width: 1.0;"/><polygon fill="#A80036" points="272.953,1776.6455,281.1438,1771.1764,275.6252,1772.4194,274.3821,1766.9009,272.953,1776.6455" style="stroke: #A80036; stroke-width: 1.0;"/><path d="M271,1784.8911 C271,1791.6936 271,1808.1014 271,1820.2434 " fill="none" style="stroke: #A80036; stroke-width: 1.0;"/><polygon fill="#A80036" points="271,1825.4722,275,1816.4722,271,1820.4722,267,1816.4722,271,1825.4722" style="stroke: #A80036; stroke-width: 1.0;"/></g></svg>