<?xml version="1.0" encoding="UTF-8" standalone="yes"?><svg xmlns="http://www.w3.org/2000/svg" xmlns:xlink="http://www.w3.org/1999/xlink" height="506px" style="width:573px;height:506px;" version="1.1" viewBox="0 0 573 506" width="573px"><defs><filter height="300%" id="f1" width="300%" x="-1" y="-1"><feGaussianBlur result="blurOut" stdDeviation="2.0"/><feColorMatrix in="blurOut" result="blurOut2" type="matrix" values="0 0 0 0 0 0 0 0 0 0 0 0 0 0 0 0 0 0 .4 0"/><feOffset dx="4.0" dy="4.0" in="blurOut2" result="blurOut3"/><feBlend in="SourceGraphic" in2="blurOut3" mode="normal"/></filter></defs><g><text fill="#000000" font-family="sans-serif" font-size="14" font-weight="bold" lengthAdjust="spacingAndGlyphs" textLength="161" x="203.5" y="21.5332">Simulation of Tx output</text><rect fill="#FEFECE" filter="url(#f1)" height="31.6094" style="stroke: #A80036; stroke-width: 1.5;" width="47" x="0" y="31.6094"/><text fill="#000000" font-family="sans-serif" font-size="14" lengthAdjust="spacingAndGlyphs" textLength="33" x="7" y="53.1426">S치ga</text><rect fill="#FEFECE" filter="url(#f1)" height="31.6094" style="stroke: #A80036; stroke-width: 1.5;" width="108" x="51" y="31.6094"/><text fill="#000000" font-family="sans-serif" font-size="14" lengthAdjust="spacingAndGlyphs" textLength="94" x="58" y="53.1426">S치gaTxModule</text><rect fill="#FEFECE" filter="url(#f1)" height="31.6094" style="stroke: #A80036; stroke-width: 1.5;" width="102" x="214" y="31.6094"/><text fill="#000000" font-family="sans-serif" font-size="14" lengthAdjust="spacingAndGlyphs" textLength="88" x="221" y="53.1426">VSSTxModule</text><rect fill="#FEFECE" filter="url(#f1)" height="31.6094" style="stroke: #A80036; stroke-width: 1.5;" width="110" x="363" y="31.6094"/><text fill="#000000" font-family="sans-serif" font-size="14" lengthAdjust="spacingAndGlyphs" textLength="96" x="370" y="53.1426">GenerateWave</text><rect fill="#FEFECE" filter="url(#f1)" height="31.6094" style="stroke: #A80036; stroke-width: 1.5;" width="87" x="477" y="31.6094"/><text fill="#000000" font-family="sans-serif" font-size="14" lengthAdjust="spacingAndGlyphs" textLength="73" x="484" y="53.1426">WriteToFile</text><line style="stroke: #A80036; stroke-width: 1.0; stroke-dasharray: 5.0,5.0;" x1="25.5" x2="25.5" y1="68.2188" y2="465.7344"/><line style="stroke: #A80036; stroke-width: 1.0; stroke-dasharray: 5.0,5.0;" x1="107" x2="107" y1="68.2188" y2="465.7344"/><rect fill="#FFFFFF" filter="url(#f1)" height="381.5156" style="stroke: #A80036; stroke-width: 1.0;" width="10" x="102" y="74.2188"/><line style="stroke: #A80036; stroke-width: 1.0; stroke-dasharray: 5.0,5.0;" x1="267" x2="267" y1="68.2188" y2="465.7344"/><rect fill="#FFFFFF" filter="url(#f1)" height="226.4609" style="stroke: #A80036; stroke-width: 1.0;" width="10" x="262" y="229.2734"/><rect fill="#FFFFFF" filter="url(#f1)" height="197.7578" style="stroke: #A80036; stroke-width: 1.0;" width="10" x="267" y="257.9766"/><rect fill="#FFFFFF" filter="url(#f1)" height="177.7578" style="stroke: #A80036; stroke-width: 1.0;" width="10" x="272" y="277.9766"/><line style="stroke: #A80036; stroke-width: 1.0; stroke-dasharray: 5.0,5.0;" x1="420" x2="420" y1="68.2188" y2="465.7344"/><rect fill="#FFFFFF" filter="url(#f1)" height="66.7031" style="stroke: #A80036; stroke-width: 1.0;" width="10" x="415" y="315.9766"/><line style="stroke: #A80036; stroke-width: 1.0; stroke-dasharray: 5.0,5.0;" x1="522.5" x2="522.5" y1="68.2188" y2="465.7344"/><rect fill="#FFFFFF" filter="url(#f1)" height="42.3516" style="stroke: #A80036; stroke-width: 1.0;" width="10" x="517.5" y="413.3828"/><rect fill="#FEFECE" filter="url(#f1)" height="31.6094" style="stroke: #A80036; stroke-width: 1.5;" width="47" x="0" y="465.7344"/><text fill="#000000" font-family="sans-serif" font-size="14" lengthAdjust="spacingAndGlyphs" textLength="33" x="7" y="487.2676">S치ga</text><rect fill="#FEFECE" filter="url(#f1)" height="31.6094" style="stroke: #A80036; stroke-width: 1.5;" width="108" x="51" y="465.7344"/><text fill="#000000" font-family="sans-serif" font-size="14" lengthAdjust="spacingAndGlyphs" textLength="94" x="58" y="487.2676">S치gaTxModule</text><rect fill="#FEFECE" filter="url(#f1)" height="31.6094" style="stroke: #A80036; stroke-width: 1.5;" width="102" x="214" y="465.7344"/><text fill="#000000" font-family="sans-serif" font-size="14" lengthAdjust="spacingAndGlyphs" textLength="88" x="221" y="487.2676">VSSTxModule</text><rect fill="#FEFECE" filter="url(#f1)" height="31.6094" style="stroke: #A80036; stroke-width: 1.5;" width="110" x="363" y="465.7344"/><text fill="#000000" font-family="sans-serif" font-size="14" lengthAdjust="spacingAndGlyphs" textLength="96" x="370" y="487.2676">GenerateWave</text><rect fill="#FEFECE" filter="url(#f1)" height="31.6094" style="stroke: #A80036; stroke-width: 1.5;" width="87" x="477" y="465.7344"/><text fill="#000000" font-family="sans-serif" font-size="14" lengthAdjust="spacingAndGlyphs" textLength="73" x="484" y="487.2676">WriteToFile</text><polygon fill="#A80036" points="90,70.2188,100,74.2188,90,78.2188,94,74.2188" style="stroke: #A80036; stroke-width: 1.0;"/><line style="stroke: #A80036; stroke-width: 1.0;" x1="25.5" x2="96" y1="74.2188" y2="74.2188"/><line style="stroke: #A80036; stroke-width: 1.0;" x1="112" x2="154" y1="157.2734" y2="157.2734"/><line style="stroke: #A80036; stroke-width: 1.0;" x1="154" x2="154" y1="157.2734" y2="170.2734"/><line style="stroke: #A80036; stroke-width: 1.0;" x1="113" x2="154" y1="170.2734" y2="170.2734"/><polygon fill="#A80036" points="123,166.2734,113,170.2734,123,174.2734,119,170.2734" style="stroke: #A80036; stroke-width: 1.0;"/><text fill="#000000" font-family="sans-serif" font-size="13" lengthAdjust="spacingAndGlyphs" textLength="60" x="119" y="119.7139">generating</text><text fill="#000000" font-family="sans-serif" font-size="13" lengthAdjust="spacingAndGlyphs" textLength="61" x="123" y="136.0654">powershell</text><text fill="#000000" font-family="sans-serif" font-size="13" lengthAdjust="spacingAndGlyphs" textLength="32" x="123" y="152.417">script</text><polygon fill="#A80036" points="255,212.2734,265,216.2734,255,220.2734,259,216.2734" style="stroke: #A80036; stroke-width: 1.0;"/><line style="stroke: #A80036; stroke-width: 1.0;" x1="112" x2="261" y1="216.2734" y2="216.2734"/><text fill="#000000" font-family="sans-serif" font-size="13" lengthAdjust="spacingAndGlyphs" textLength="132" x="119" y="195.7686">COM-call to VSS dock</text><text fill="#000000" font-family="sans-serif" font-size="13" lengthAdjust="spacingAndGlyphs" textLength="96" x="123" y="212.1201">using powershell</text><line style="stroke: #A80036; stroke-width: 1.0;" x1="267" x2="314" y1="216.9766" y2="216.9766"/><line style="stroke: #A80036; stroke-width: 1.0;" x1="314" x2="314" y1="216.9766" y2="229.9766"/><line style="stroke: #A80036; stroke-width: 1.0;" x1="273" x2="314" y1="229.9766" y2="229.9766"/><polygon fill="#A80036" points="283,225.9766,273,229.9766,283,233.9766,279,229.9766" style="stroke: #A80036; stroke-width: 1.0;"/><text fill="#000000" font-family="sans-serif" font-size="13" lengthAdjust="spacingAndGlyphs" textLength="78" x="279" y="195.7686">start  parallell</text><text fill="#000000" font-family="sans-serif" font-size="13" lengthAdjust="spacingAndGlyphs" textLength="66" x="283" y="212.1201">simulations</text><polygon fill="#A80036" points="403,311.9766,413,315.9766,403,319.9766,407,315.9766" style="stroke: #A80036; stroke-width: 1.0;"/><line style="stroke: #A80036; stroke-width: 1.0;" x1="282" x2="409" y1="315.9766" y2="315.9766"/><text fill="#000000" font-family="sans-serif" font-size="13" lengthAdjust="spacingAndGlyphs" textLength="40" x="289" y="295.4717">Size of</text><text fill="#000000" font-family="sans-serif" font-size="13" lengthAdjust="spacingAndGlyphs" textLength="94" x="297" y="311.8232">simulation buffer</text><polygon fill="#A80036" points="293,378.6797,283,382.6797,293,386.6797,289,382.6797" style="stroke: #A80036; stroke-width: 1.0;"/><line style="stroke: #A80036; stroke-width: 1.0; stroke-dasharray: 2.0,2.0;" x1="287" x2="419" y1="382.6797" y2="382.6797"/><text fill="#000000" font-family="sans-serif" font-size="13" lengthAdjust="spacingAndGlyphs" textLength="52" x="299" y="362.1748">Vector of</text><text fill="#000000" font-family="sans-serif" font-size="13" lengthAdjust="spacingAndGlyphs" textLength="81" x="303" y="378.5264">wave samples</text><polygon fill="#A80036" points="505.5,409.3828,515.5,413.3828,505.5,417.3828,509.5,413.3828" style="stroke: #A80036; stroke-width: 1.0;"/><line style="stroke: #A80036; stroke-width: 1.0;" x1="282" x2="511.5" y1="413.3828" y2="413.3828"/><text fill="#000000" font-family="sans-serif" font-size="13" lengthAdjust="spacingAndGlyphs" textLength="54" x="289" y="408.8779">Tx output</text><polygon fill="#A80036" points="123,443.7344,113,447.7344,123,451.7344,119,447.7344" style="stroke: #A80036; stroke-width: 1.0;"/><line style="stroke: #A80036; stroke-width: 1.0; stroke-dasharray: 2.0,2.0;" x1="117" x2="266" y1="447.7344" y2="447.7344"/><polygon fill="#A80036" points="36.5,443.7344,26.5,447.7344,36.5,451.7344,32.5,447.7344" style="stroke: #A80036; stroke-width: 1.0;"/><line style="stroke: #A80036; stroke-width: 1.0; stroke-dasharray: 2.0,2.0;" x1="30.5" x2="106" y1="447.7344" y2="447.7344"/></g></svg>