<?xml version="1.0" encoding="UTF-8" standalone="yes"?><svg xmlns="http://www.w3.org/2000/svg" xmlns:xlink="http://www.w3.org/1999/xlink" height="401px" style="width:758px;height:401px;" version="1.1" viewBox="0 0 758 401" width="758px"><defs><filter height="300%" id="f1" width="300%" x="-1" y="-1"><feGaussianBlur result="blurOut" stdDeviation="2.0"/><feColorMatrix in="blurOut" result="blurOut2" type="matrix" values="0 0 0 0 0 0 0 0 0 0 0 0 0 0 0 0 0 0 .4 0"/><feOffset dx="4.0" dy="4.0" in="blurOut2" result="blurOut3"/><feBlend in="SourceGraphic" in2="blurOut3" mode="normal"/></filter></defs><g><text fill="#000000" font-family="Latin Modern Roman 5" font-size="14" font-weight="bold" lengthAdjust="spacingAndGlyphs" textLength="322" x="217" y="24.5332">Simulation of wave propagation against target</text><rect fill="#FFFFFF" filter="url(#f1)" height="240.8125" style="stroke: #A80036; stroke-width: 1.0;" width="10" x="157" y="103.2188"/><rect fill="#FFFFFF" filter="url(#f1)" height="167.4063" style="stroke: #A80036; stroke-width: 1.0;" width="10" x="383" y="117.5703"/><rect fill="#FFFFFF" filter="url(#f1)" height="46.3516" style="stroke: #A80036; stroke-width: 1.0;" width="10" x="577.5" y="147.5703"/><rect fill="#FFFFFF" filter="url(#f1)" height="30" style="stroke: #A80036; stroke-width: 1.0;" width="10" x="696" y="208.625"/><line style="stroke: #A80036; stroke-width: 1.0; stroke-dasharray: 5.0,5.0;" x1="33" x2="33" y1="71.2188" y2="362.0313"/><line style="stroke: #A80036; stroke-width: 1.0; stroke-dasharray: 5.0,5.0;" x1="162" x2="162" y1="71.2188" y2="362.0313"/><line style="stroke: #A80036; stroke-width: 1.0; stroke-dasharray: 5.0,5.0;" x1="388" x2="388" y1="71.2188" y2="362.0313"/><line style="stroke: #A80036; stroke-width: 1.0; stroke-dasharray: 5.0,5.0;" x1="582" x2="582" y1="71.2188" y2="362.0313"/><line style="stroke: #A80036; stroke-width: 1.0; stroke-dasharray: 5.0,5.0;" x1="701" x2="701" y1="71.2188" y2="362.0313"/><rect fill="#FEFECE" filter="url(#f1)" height="31.6094" style="stroke: #A80036; stroke-width: 1.5;" width="47" x="8" y="34.6094"/><text fill="#000000" font-family="Latin Modern Roman 5" font-size="14" lengthAdjust="spacingAndGlyphs" textLength="33" x="15" y="56.1426">S치ga</text><rect fill="#FEFECE" filter="url(#f1)" height="31.6094" style="stroke: #A80036; stroke-width: 1.5;" width="47" x="8" y="361.0313"/><text fill="#000000" font-family="Latin Modern Roman 5" font-size="14" lengthAdjust="spacingAndGlyphs" textLength="33" x="15" y="382.5645">S치ga</text><rect fill="#FEFECE" filter="url(#f1)" height="31.6094" style="stroke: #A80036; stroke-width: 1.5;" width="182" x="69" y="34.6094"/><text fill="#000000" font-family="Latin Modern Roman 5" font-size="14" lengthAdjust="spacingAndGlyphs" textLength="156" x="76" y="56.1426">S치gaPropagationModule</text><rect fill="#FEFECE" filter="url(#f1)" height="31.6094" style="stroke: #A80036; stroke-width: 1.5;" width="182" x="69" y="361.0313"/><text fill="#000000" font-family="Latin Modern Roman 5" font-size="14" lengthAdjust="spacingAndGlyphs" textLength="156" x="76" y="382.5645">S치gaPropagationModule</text><rect fill="#FEFECE" filter="url(#f1)" height="31.6094" style="stroke: #A80036; stroke-width: 1.5;" width="242" x="265" y="34.6094"/><text fill="#000000" font-family="Latin Modern Roman 5" font-size="14" lengthAdjust="spacingAndGlyphs" textLength="208" x="272" y="56.1426">WavePropagationRadarEquation</text><rect fill="#FEFECE" filter="url(#f1)" height="31.6094" style="stroke: #A80036; stroke-width: 1.5;" width="242" x="265" y="361.0313"/><text fill="#000000" font-family="Latin Modern Roman 5" font-size="14" lengthAdjust="spacingAndGlyphs" textLength="208" x="272" y="382.5645">WavePropagationRadarEquation</text><rect fill="#FEFECE" filter="url(#f1)" height="31.6094" style="stroke: #A80036; stroke-width: 1.5;" width="119" x="521" y="34.6094"/><text fill="#000000" font-family="Latin Modern Roman 5" font-size="14" lengthAdjust="spacingAndGlyphs" textLength="97" x="528" y="56.1426">TargetModel(s)</text><rect fill="#FEFECE" filter="url(#f1)" height="31.6094" style="stroke: #A80036; stroke-width: 1.5;" width="119" x="521" y="361.0313"/><text fill="#000000" font-family="Latin Modern Roman 5" font-size="14" lengthAdjust="spacingAndGlyphs" textLength="97" x="528" y="382.5645">TargetModel(s)</text><rect fill="#FEFECE" filter="url(#f1)" height="31.6094" style="stroke: #A80036; stroke-width: 1.5;" width="90" x="654" y="34.6094"/><text fill="#000000" font-family="Latin Modern Roman 5" font-size="14" lengthAdjust="spacingAndGlyphs" textLength="72" x="661" y="56.1426">ReadTxFile</text><rect fill="#FEFECE" filter="url(#f1)" height="31.6094" style="stroke: #A80036; stroke-width: 1.5;" width="90" x="654" y="361.0313"/><text fill="#000000" font-family="Latin Modern Roman 5" font-size="14" lengthAdjust="spacingAndGlyphs" textLength="72" x="661" y="382.5645">ReadTxFile</text><rect fill="#FFFFFF" filter="url(#f1)" height="240.8125" style="stroke: #A80036; stroke-width: 1.0;" width="10" x="157" y="103.2188"/><rect fill="#FFFFFF" filter="url(#f1)" height="167.4063" style="stroke: #A80036; stroke-width: 1.0;" width="10" x="383" y="117.5703"/><rect fill="#FFFFFF" filter="url(#f1)" height="46.3516" style="stroke: #A80036; stroke-width: 1.0;" width="10" x="577.5" y="147.5703"/><rect fill="#FFFFFF" filter="url(#f1)" height="30" style="stroke: #A80036; stroke-width: 1.0;" width="10" x="696" y="208.625"/><polygon fill="#A80036" points="145,99.2188,155,103.2188,145,107.2188,149,103.2188" style="stroke: #A80036; stroke-width: 1.0;"/><line style="stroke: #A80036; stroke-width: 1.0;" x1="33.5" x2="151" y1="103.2188" y2="103.2188"/><text fill="#000000" font-family="Latin Modern Roman 5" font-size="13" lengthAdjust="spacingAndGlyphs" textLength="25" x="40.5" y="98.7139">time</text><polygon fill="#A80036" points="371,113.5703,381,117.5703,371,121.5703,375,117.5703" style="stroke: #A80036; stroke-width: 1.0;"/><line style="stroke: #A80036; stroke-width: 1.0;" x1="167" x2="377" y1="117.5703" y2="117.5703"/><polygon fill="#A80036" points="565.5,143.5703,575.5,147.5703,565.5,151.5703,569.5,147.5703" style="stroke: #A80036; stroke-width: 1.0;"/><line style="stroke: #A80036; stroke-width: 1.0;" x1="393" x2="571.5" y1="147.5703" y2="147.5703"/><text fill="#000000" font-family="Latin Modern Roman 5" font-size="13" lengthAdjust="spacingAndGlyphs" textLength="28" x="400" y="143.0654">Time</text><polygon fill="#A80036" points="404,189.9219,394,193.9219,404,197.9219,400,193.9219" style="stroke: #A80036; stroke-width: 1.0;"/><line style="stroke: #A80036; stroke-width: 1.0; stroke-dasharray: 2.0,2.0;" x1="398" x2="581.5" y1="193.9219" y2="193.9219"/><text fill="#000000" font-family="Latin Modern Roman 5" font-size="13" lengthAdjust="spacingAndGlyphs" textLength="102" x="410" y="173.417">Position, velocity,</text><text fill="#000000" font-family="Latin Modern Roman 5" font-size="13" lengthAdjust="spacingAndGlyphs" textLength="43" x="418" y="189.7686">swirling</text><polygon fill="#A80036" points="684,204.625,694,208.625,684,212.625,688,208.625" style="stroke: #A80036; stroke-width: 1.0;"/><line style="stroke: #A80036; stroke-width: 1.0;" x1="393" x2="690" y1="208.625" y2="208.625"/><polygon fill="#A80036" points="404,234.625,394,238.625,404,242.625,400,238.625" style="stroke: #A80036; stroke-width: 1.0;"/><line style="stroke: #A80036; stroke-width: 1.0; stroke-dasharray: 2.0,2.0;" x1="398" x2="700" y1="238.625" y2="238.625"/><text fill="#000000" font-family="Latin Modern Roman 5" font-size="13" lengthAdjust="spacingAndGlyphs" textLength="100" x="410" y="234.1201">Transmitted wave</text><polygon fill="#A80036" points="178,280.9766,168,284.9766,178,288.9766,174,284.9766" style="stroke: #A80036; stroke-width: 1.0;"/><line style="stroke: #A80036; stroke-width: 1.0;" x1="172" x2="387" y1="284.9766" y2="284.9766"/><text fill="#000000" font-family="Latin Modern Roman 5" font-size="13" lengthAdjust="spacingAndGlyphs" textLength="65" x="184" y="264.4717">matfile with</text><text fill="#000000" font-family="Latin Modern Roman 5" font-size="13" lengthAdjust="spacingAndGlyphs" textLength="73" x="188" y="280.8232">voltage, time</text><rect fill="#EEEEEE" filter="url(#f1)" height="3" style="stroke: #EEEEEE; stroke-width: 1.0;" width="750" x="3" y="314.8555"/><line style="stroke: #000000; stroke-width: 1.0;" x1="3" x2="753" y1="314.8555" y2="314.8555"/><line style="stroke: #000000; stroke-width: 1.0;" x1="3" x2="753" y1="317.8555" y2="317.8555"/><rect fill="#EEEEEE" filter="url(#f1)" height="24.3516" style="stroke: #000000; stroke-width: 2.0;" width="165" x="295.5" y="303.6797"/><text fill="#000000" font-family="Latin Modern Roman 5" font-size="13" font-weight="bold" lengthAdjust="spacingAndGlyphs" textLength="139" x="301.5" y="321.1748">Repeat for each pulse</text><polygon fill="#A80036" points="44.5,340.0313,34.5,344.0313,44.5,348.0313,40.5,344.0313" style="stroke: #A80036; stroke-width: 1.0;"/><line style="stroke: #A80036; stroke-width: 1.0;" x1="38.5" x2="161" y1="344.0313" y2="344.0313"/></g></svg>