<?xml version="1.0" encoding="UTF-8" standalone="yes"?><svg xmlns="http://www.w3.org/2000/svg" xmlns:xlink="http://www.w3.org/1999/xlink" height="897px" style="width:388px;height:897px;" version="1.1" viewBox="0 0 388 897" width="388px"><defs><filter height="300%" id="f1" width="300%" x="-1" y="-1"><feGaussianBlur result="blurOut" stdDeviation="2.0"/><feColorMatrix in="blurOut" result="blurOut2" type="matrix" values="0 0 0 0 0 0 0 0 0 0 0 0 0 0 0 0 0 0 .4 0"/><feOffset dx="4.0" dy="4.0" in="blurOut2" result="blurOut3"/><feBlend in="SourceGraphic" in2="blurOut3" mode="normal"/></filter></defs><g><text fill="#000000" font-family="sans-serif" font-size="30" font-weight="bold" lengthAdjust="spacingAndGlyphs" textLength="217" x="90" y="31.1426">Sága Workflow</text><ellipse cx="16" cy="63.2344" fill="#000000" filter="url(#f1)" rx="10" ry="10" style="stroke: none; stroke-width: 1.0;"/><rect fill="#FEFECE" filter="url(#f1)" height="35.0938" rx="12.5" ry="12.5" style="stroke: #A80036; stroke-width: 1.5;" width="146" x="46" y="45.7344"/><text fill="#000000" font-family="sans-serif" font-size="12" lengthAdjust="spacingAndGlyphs" textLength="117" x="56" y="68.1914">Set Sága parameters</text><rect fill="#FEFECE" filter="url(#f1)" height="35.0938" rx="12.5" ry="12.5" style="stroke: #A80036; stroke-width: 1.5;" width="110" x="212" y="45.7344"/><text fill="#000000" font-family="sans-serif" font-size="12" lengthAdjust="spacingAndGlyphs" textLength="81" x="222" y="68.1914">SágaTxModule</text><rect fill="#FEFECE" filter="url(#f1)" height="35.0938" rx="12.5" ry="12.5" style="stroke: #A80036; stroke-width: 1.5;" width="165" x="184.5" y="120.7344"/><text fill="#000000" font-family="sans-serif" font-size="12" lengthAdjust="spacingAndGlyphs" textLength="136" x="194.5" y="143.1914">SágaPropagationModule</text><rect fill="#FEFECE" filter="url(#f1)" height="35.0938" rx="12.5" ry="12.5" style="stroke: #A80036; stroke-width: 1.5;" width="224" x="155" y="195.7344"/><text fill="#000000" font-family="sans-serif" font-size="12" lengthAdjust="spacingAndGlyphs" textLength="192" x="165" y="218.1914">SágaWavePropDisturbanceModule</text><rect fill="#FEFECE" filter="url(#f1)" height="35.0938" rx="12.5" ry="12.5" style="stroke: #A80036; stroke-width: 1.5;" width="110" x="212" y="270.7344"/><text fill="#000000" font-family="sans-serif" font-size="12" lengthAdjust="spacingAndGlyphs" textLength="81" x="222" y="293.1914">EchoExtraction</text><rect fill="#FEFECE" filter="url(#f1)" height="35.0938" rx="12.5" ry="12.5" style="stroke: #A80036; stroke-width: 1.5;" width="103" x="215.5" y="345.7344"/><text fill="#000000" font-family="sans-serif" font-size="12" lengthAdjust="spacingAndGlyphs" textLength="83" x="225.5" y="368.1914">SágaRxModule</text><rect fill="#FEFECE" filter="url(#f1)" height="35.0938" rx="12.5" ry="12.5" style="stroke: #A80036; stroke-width: 1.5;" width="149" x="192.5" y="420.7344"/><text fill="#000000" font-family="sans-serif" font-size="12" lengthAdjust="spacingAndGlyphs" textLength="120" x="202.5" y="443.1914">ConcatenateRxOutput</text><rect fill="#FEFECE" filter="url(#f1)" height="35.0938" rx="12.5" ry="12.5" style="stroke: #A80036; stroke-width: 1.5;" width="142" x="196" y="495.7344"/><text fill="#000000" font-family="sans-serif" font-size="12" lengthAdjust="spacingAndGlyphs" textLength="122" x="206" y="518.1914">SágaSamplingModule</text><rect fill="#FEFECE" filter="url(#f1)" height="35.0938" rx="12.5" ry="12.5" style="stroke: #A80036; stroke-width: 1.5;" width="115" x="209.5" y="570.7344"/><text fill="#000000" font-family="sans-serif" font-size="12" lengthAdjust="spacingAndGlyphs" textLength="95" x="219.5" y="593.1914">BeamShapeSum</text><rect fill="#FEFECE" filter="url(#f1)" height="35.0938" rx="12.5" ry="12.5" style="stroke: #A80036; stroke-width: 1.5;" width="125" x="204.5" y="645.7344"/><text fill="#000000" font-family="sans-serif" font-size="12" lengthAdjust="spacingAndGlyphs" textLength="96" x="214.5" y="668.1914">SignalCorrelation</text><rect fill="#FEFECE" filter="url(#f1)" height="35.0938" rx="12.5" ry="12.5" style="stroke: #A80036; stroke-width: 1.5;" width="117" x="208.5" y="720.7344"/><text fill="#000000" font-family="sans-serif" font-size="12" lengthAdjust="spacingAndGlyphs" textLength="88" x="218.5" y="743.1914">DopplerFiltering</text><rect fill="#FEFECE" filter="url(#f1)" height="35.0938" rx="12.5" ry="12.5" style="stroke: #A80036; stroke-width: 1.5;" width="52" x="241" y="795.7344"/><text fill="#000000" font-family="sans-serif" font-size="12" lengthAdjust="spacingAndGlyphs" textLength="32" x="251" y="818.1914">CFAR</text><ellipse cx="267" cy="880.7344" fill="none" filter="url(#f1)" rx="10" ry="10" style="stroke: #000000; stroke-width: 1.0;"/><ellipse cx="267.5" cy="881.2344" fill="#000000" rx="6" ry="6" style="stroke: none; stroke-width: 1.0;"/><path d="M26.0586,63.2344 C30.8577,63.2344 35.6568,63.2344 40.4559,63.2344 " fill="none" style="stroke: #A80036; stroke-width: 1.0;"/><polygon fill="#A80036" points="45.6634,63.2344,36.6634,59.2344,40.6634,63.2344,36.6634,67.2344,45.6634,63.2344" style="stroke: #A80036; stroke-width: 1.0;"/><path d="M192.133,63.2344 C196.929,63.2344 201.726,63.2344 206.522,63.2344 " fill="none" style="stroke: #A80036; stroke-width: 1.0;"/><polygon fill="#A80036" points="211.727,63.2344,202.727,59.2344,206.727,63.2344,202.727,67.2344,211.727,63.2344" style="stroke: #A80036; stroke-width: 1.0;"/><path d="M267,80.7994 C267,90.9934 267,104.1814 267,115.2444 " fill="none" style="stroke: #A80036; stroke-width: 1.0;"/><polygon fill="#A80036" points="267,120.4824,271,111.4824,267,115.4824,263,111.4824,267,120.4824" style="stroke: #A80036; stroke-width: 1.0;"/><path d="M267,155.7994 C267,165.9934 267,179.1814 267,190.2444 " fill="none" style="stroke: #A80036; stroke-width: 1.0;"/><polygon fill="#A80036" points="267,195.4824,271,186.4824,267,190.4824,263,186.4824,267,195.4824" style="stroke: #A80036; stroke-width: 1.0;"/><path d="M267,230.7994 C267,240.9934 267,254.1814 267,265.2444 " fill="none" style="stroke: #A80036; stroke-width: 1.0;"/><polygon fill="#A80036" points="267,270.4824,271,261.4824,267,265.4824,263,261.4824,267,270.4824" style="stroke: #A80036; stroke-width: 1.0;"/><path d="M267,305.7994 C267,315.9934 267,329.1814 267,340.2444 " fill="none" style="stroke: #A80036; stroke-width: 1.0;"/><polygon fill="#A80036" points="267,345.4824,271,336.4824,267,340.4824,263,336.4824,267,345.4824" style="stroke: #A80036; stroke-width: 1.0;"/><path d="M267,380.7994 C267,390.9934 267,404.1814 267,415.2444 " fill="none" style="stroke: #A80036; stroke-width: 1.0;"/><polygon fill="#A80036" points="267,420.4824,271,411.4824,267,415.4824,263,411.4824,267,420.4824" style="stroke: #A80036; stroke-width: 1.0;"/><path d="M267,455.7994 C267,465.9934 267,479.1814 267,490.2444 " fill="none" style="stroke: #A80036; stroke-width: 1.0;"/><polygon fill="#A80036" points="267,495.4824,271,486.4824,267,490.4824,263,486.4824,267,495.4824" style="stroke: #A80036; stroke-width: 1.0;"/><path d="M267,530.7994 C267,540.9934 267,554.1814 267,565.2444 " fill="none" style="stroke: #A80036; stroke-width: 1.0;"/><polygon fill="#A80036" points="267,570.4824,271,561.4824,267,565.4824,263,561.4824,267,570.4824" style="stroke: #A80036; stroke-width: 1.0;"/><path d="M267,605.7994 C267,615.9934 267,629.1814 267,640.2444 " fill="none" style="stroke: #A80036; stroke-width: 1.0;"/><polygon fill="#A80036" points="267,645.4824,271,636.4824,267,640.4824,263,636.4824,267,645.4824" style="stroke: #A80036; stroke-width: 1.0;"/><path d="M267,680.7994 C267,690.9934 267,704.1814 267,715.2444 " fill="none" style="stroke: #A80036; stroke-width: 1.0;"/><polygon fill="#A80036" points="267,720.4824,271,711.4824,267,715.4824,263,711.4824,267,720.4824" style="stroke: #A80036; stroke-width: 1.0;"/><path d="M267,755.7994 C267,765.9934 267,779.1814 267,790.2444 " fill="none" style="stroke: #A80036; stroke-width: 1.0;"/><polygon fill="#A80036" points="267,795.4824,271,786.4824,267,790.4824,263,786.4824,267,795.4824" style="stroke: #A80036; stroke-width: 1.0;"/><path d="M267,830.7628 C267,841.379 267,855.0377 267,865.2318 " fill="none" style="stroke: #A80036; stroke-width: 1.0;"/><polygon fill="#A80036" points="267,870.4974,271,861.4974,267,865.4974,263,861.4974,267,870.4974" style="stroke: #A80036; stroke-width: 1.0;"/></g></svg>